/* XPM */
static char * collectible_xpm[] = {
"64 64 10 1",
" 	c None",
".	c #101018",
"+	c #283038",
"@	c #302830",
"#	c #706878",
"$	c #C0B0C8",
"%	c #F8F8F8",
"&	c #080808",
"*	c #700000",
"=	c #F84830",
"                                       .++@@#$$@                ",
"                                      .++@#$%%%$@               ",
"                                     &++@#$%%%%%#@              ",
"                                     .++@$%%%%%%$@              ",
"                                    &+++@$%%%%%%@*              ",
"                                    .++@#%$@*#%$*=              ",
"                                   &+++@$%#*=*$$@*              ",
"                                   .++.@%%#@*#$$##              ",
"                                  &+++.@%%$##$%#%%#             ",
"                                  &++..@$%%$%%%%%#%#            ",
"                               %  &++..@#%%%%%@@#%%%#           ",
"                                %&+++...@$%%#####@@@@@          ",
"                                 .++...+@#%%$#$#@               ",
"                                &+++...+.@$%###@                ",
"                                .+++...+.@#%%%%@                ",
"                               &+.++..++..@$%$$@                ",
"                           %%%$#+.++..+++.@#$$$@.               ",
"                              &.+..+..+++..@@@@..               ",
"                              &++..+...+++.......$%%            ",
"                              &+++.....+++++.....               ",
"                             &.+++$#...++++++.....              ",
"                             .+++%#....+.++.++....              ",
"                            &.++%++.&.++#$+.++....              ",
"                            &.+%+++.&.+.#%..+++#%.              ",
"                           &..++.+++&....%..+.+..%.             ",
"                           &.++++.++&....%....++.+%             ",
"                          &..++++..+.&...%....++..+             ",
"                          &..+++++...&...&&&&..+...             ",
"                         &....+++++..&..&&&&&&.++.+.            ",
"                         &....+++++..&.& &&&&.&++.+.            ",
"                         &....++.+++..&& &&&..&.+++.            ",
"                         &....+++..+..&  &&&..&.+++.            ",
"                         &.....+++..+.& &&&&.&&.+++..           ",
"                          &....++++...& &&&..&&.+++..           ",
"                         &&.....++++...&&&..&&..+++..           ",
"                         &.&....+++++...&..&&.+.++...           ",
"                         &.&....++++++.&&&&&.+++++....          ",
"                        &&.+&....+.++.&&......+.++..+.          ",
"                        &.++&....+&.+&&.+.....+.++..++          ",
"                       &..++&.....&&.&@.+..+....++..++          ",
"                       &.+++.&....&&&##@@..++..+++...+.         ",
"                      &&++++.&...&&&#$$%$#.++..++....+.         ",
"                 &    &&.++.+.&..&&#$$%%%%#++..++....+.         ",
"             &&&&&&  &&....++.&&&&&@$$%%%%%@++.++....+.         ",
"              &....&&&....++..&.+&.@#$#%%%#%@+.++..+.+.&        ",
"               &......++.+++...++...@$@%#%@#%+..+..+.++&        ",
"       &&     &&&&...+..+++....++...##@$@$@@@#..+..+.++&        ",
"      &&&&&       &&....+.....+++....@$@$@@.+++....+.++.        ",
"        &..&&  &&&............++....+++@@@..+++...++..+.        ",
"         &...&&......+...+++...+....+++.++..++....++..+.&       ",
"          &&.......++..++++...++...++++.++...+...++...++&       ",
"          &......++++++++.....+....++++.++...++..++....+&       ",
"         &....+++++++........++...+++++.++....+.+++....&&       ",
"       &&&.++++..........+..++....++++...+...+..++.....&&       ",
"      && &&&..........+++..++.....++++...+...+.+++...+.&&       ",
"            &&......+++....+.....+++++...++..++++.....+&        ",
"              &...++++....+......+++++...++...+++.....+&        ",
"             &.++++++............+.++....+++..++.......&        ",
"            &&&&.++.............++.++.....+++..+.&.&. .&        ",
"                &...&...........+..++.....++++...&&&& &         ",
"               &&&&& &.........++..+.......++...& &&            ",
"                      &........+..++....&..+..&&  &             ",
"                    &&........++..+..... &...                   ",
"                   &&.....&&&&+&..+.....  &.                    "};
