/* XPM */
static char *e5c6673dcce2410cf51bc44862346b7dQ8ucIj7ZAqh3OoCB[] = {
/* columns rows colors chars-per-pixel */
"32 32 157 2 ",
"   c #1E0F1B",
".  c #1E131C",
"X  c #261316",
"o  c #23151A",
"O  c #29171A",
"+  c #271C1D",
"@  c #2B191D",
"#  c #36161C",
"$  c #331A1E",
"%  c #1B1423",
"&  c #1E162D",
"*  c #1D1A2B",
"=  c #1E1A30",
"-  c #211624",
";  c #2C1724",
":  c #251C23",
">  c #2C1B21",
",  c #25172B",
"<  c #251C2B",
"1  c #2B1E2A",
"2  c #3F1624",
"3  c #351C23",
"4  c #3C1D23",
"5  c #331D2B",
"6  c #3C1E2C",
"7  c #241A32",
"8  c #291B36",
"9  c #252023",
"0  c #2B2225",
"q  c #272229",
"w  c #2B242B",
"e  c #322223",
"r  c #3C2125",
"t  c #33232B",
"y  c #3C232A",
"u  c #312A29",
"i  c #3B2A2D",
"p  c #2B2533",
"a  c #252832",
"s  c #2D2C35",
"d  c #2B263E",
"f  c #252C39",
"g  c #282B3A",
"h  c #332534",
"j  c #3A2237",
"k  c #332B33",
"l  c #3A2C33",
"z  c #3C233B",
"x  c #312838",
"c  c #3B2B3B",
"v  c #2D333E",
"b  c #353037",
"n  c #3C3335",
"m  c #34353D",
"M  c #3A333C",
"N  c #441617",
"B  c #4B121C",
"V  c #411C1F",
"C  c #491D1E",
"Z  c #5E1513",
"A  c #561B17",
"S  c #551718",
"D  c #5E1C1D",
"F  c #621A1B",
"G  c #791913",
"H  c #472419",
"J  c #441721",
"K  c #451A21",
"L  c #491B20",
"P  c #46162A",
"I  c #411E2C",
"U  c #5C1524",
"Y  c #401F30",
"T  c #641F26",
"R  c #462326",
"E  c #4A2424",
"W  c #4F2A25",
"Q  c #43222D",
"!  c #4A232D",
"~  c #472A2C",
"^  c #532027",
"/  c #552C24",
"(  c #552429",
")  c #59232C",
"_  c #442334",
"`  c #4C2633",
"'  c #422C37",
"]  c #41263D",
"[  c #4B2C3C",
"{  c #50253D",
"}  c #502E3C",
"|  c #413536",
" . c #413935",
".. c #41353A",
"X. c #4D313F",
"o. c #47383E",
"O. c #4E3A3F",
"+. c #55333C",
"@. c #52393D",
"#. c #5B3A3D",
"$. c #6A262C",
"%. c #642434",
"&. c #692632",
"*. c #1F3B4E",
"=. c #1C3D51",
"-. c #3F2642",
";. c #3B2940",
":. c #3E2548",
">. c #3F2F4E",
",. c #253646",
"<. c #2D3643",
"1. c #2A3846",
"2. c #213748",
"3. c #243A4B",
"4. c #333541",
"5. c #3B3243",
"6. c #3C304B",
"7. c #3F2E52",
"8. c #3B3050",
"9. c #432943",
"0. c #412C4D",
"q. c #502F43",
"w. c #413344",
"e. c #4A3542",
"r. c #453C46",
"t. c #4C3D43",
"y. c #4B3D45",
"u. c #4C3D46",
"i. c #493648",
"p. c #463A48",
"a. c #473A4A",
"s. c #423E48",
"d. c #47394D",
"f. c #4A3D49",
"g. c #48384F",
"h. c #4F394F",
"j. c #533A43",
"k. c #583B40",
"l. c #583E43",
"z. c #53384B",
"x. c #402E53",
"c. c #432A57",
"v. c #402D55",
"b. c #442C54",
"n. c #402C5A",
"m. c #412B5C",
"M. c #483752",
"N. c #483754",
"B. c #483851",
"V. c #4C3950",
"C. c #5A4342",
"Z. c #5E4343",
"A. c #594843",
"S. c #654745",
"D. c #624049",
"F. c #635049",
"G. c #8D2522",
/* pixels */
"f.p.p.p.p.p.p.p.d.p.p.d.d.p.p.B.p.d.g.p.p.B.g.d.g.B.M.M.N.M.M.B.",
"f.6.5.5.>.v.7.>.7.7.>.7.7.>.7.n.x.v.n.v.v.n.n.v.z 0.n.m.m.m.m.B.",
"y.5. .n n | | n M | n n o.n n 7.>.x.v.7.>.v.n.v.:.3 z n.m.m.m.B.",
"y.5.| n ..| | n 5.n n ..n n c 7.6.>.v.7.6.v.7.7.b.y } -.n.n.m.V.",
"u.5.5.M o.o.o.o.i.e.e.i.i.w.5.7.>.>.7.7.>.v.9.9.3 + k.q.c.n.n.V.",
"y.5.5.5.5.6.5.5.7.7.>.v.v.>.7.v.>.7.v.7.7.n.9.n q + ~ l.0.n.n.V.",
"u.5.5.M 5.5.5.5.6.6.6.v.x.>.7.v.>.>.v.>.6.v.' t < > e C.0.n.v.h.",
"t.5.5.M 5.5.5.5.6.5.5.7.7.6.>.v.6.>.7.6.5.-.e d 1 t @ A.9.v.v.h.",
"t.4.4.M 5.5.5.5.6.6.5.>.7.>.7.v.>.>.v.>.0.-.t h O r 3 F.e.v.n.h.",
"t.m 4.M m 5.5.5.6.5.5.6.6.6.7.7.>.7.v.>.>.9.c I o 4 3 Z.[ v.n.h.",
"t.m m M M 4.M M 5.5.5.5.5.5.6.x.6.>.7.6.6.9.j Y ^ D $ S.X.7.7.z.",
"t.m m M M 4.M M 5.5.5.5.5.5.w.0.6.>.7.>.6.-.T 3 { ) C D.9.7.7.z.",
"O.m m M m m m M 4.4.M 4.6.l > c 5.>.7.0.z 3 2 ! &.%.( +.6 v.v.z.",
"t.m m M m m m m 4.m M 4.4.5.t t 5.5.6.c , E J $.G.I 4 Q z x.7.z.",
"O.m m m m m m M m m M 4.5.h 1 t n l 8 ; F L # 3 2 I ` 6 0.>.>.z.",
"t.m m m m m m m m b m m x < 0 1 4 P U C C G F E $ Q _ 0.v.>.>.z.",
"y.1.<.m m 4.m m m 0 l p : 0 o 5 4 K B Z A V D B > ] x.7.7.7.7.z.",
"t.1.<.m m m m m 4.t p & w 0 $ r 4 Q ` ! S N 3 6 ;.>.6.6.7.>.>.z.",
"t.1.<.m 4.<.m M m k = @ $ > 3 3 ! $ H e Q 3 5.M 6.6.6.6.7.6.6.z.",
"t.1.1.<.<.1.m > p : % X 3 3 > O y r / W R i 5.M 5.6.6.6.8.6.>.z.",
"u.3.3.<.1.3.<.4.g < . . r Q [ +._ Q y ! t c 5.M 4.4.5.6.7.6.6.j.",
"t.1.1.4.<.1.<.4.1.w . @ 3 3 4 +.Q y $ i l m m M 5.4.M 5.6.6.6.j.",
"u.3.1.<.<.1.<.4.1.7   O o 3 R ` 4 @ l M M m m M 4.4.5.M 5.6.6.j.",
"u.3.3.1.1.3.1.<.f & o @ 0 3 , > @ i m m m m m m 4.4.4.4.4.4.6.j.",
"u.3.3.3.2.2.1.w * : w s 1.4.< o 0 m 4.m m 4.m m m 4.m m 4.4.4.j.",
"u.3.3.1.3.3.p * 9 v 4.1.1.m 7 u 0 m <.m m m m m m m m m m m m j.",
"u.3.3.v v g - 0 1.v m <.v p . 0 k 4.<.m m 4.m M m m m m m m m j.",
"u.*.q - % 1 t v ,.: - < < % 0 : 4.<.1.4.4.<.<.m 4.m m m 4.m m j.",
"u.=.3.<.$ s t v q a g q @ : p 3.<.<.1.4.4.<.<.4.<.<.m m 4.m m j.",
"u.=.=.3.k y t 1.,.3.1.3.<.m <.3.4.<.<.m m <.4.m 4.4.m m m m m @.",
"u.=.=.=.*.2.2.3.*.2.3.3.3.1.1.3.<.1.1.4.m <.<.m <.<.4.4.<.4.m @.",
"j.s.s.s.s.s.r.r.r.r.y.r.r.t.t.r.O.t.t.O.@.O.O.@.O.O.@.O.O.O.@.#."
};
