/* XPM */
static char * collectibletest_xpm[] = {
"96 96 17 1",
" 	c #080800",
".	c #302010",
"+	c #382818",
"@	c #101018",
"#	c #283038",
"$	c #302830",
"%	c #483008",
"&	c #706878",
"*	c #C0B0C8",
"=	c #F8F8F8",
"-	c #080808",
";	c #700000",
">	c #F84830",
",	c #584018",
"'	c #685020",
")	c #806838",
"!	c #907840",
"                                                                                                ",
"                                                                                                ",
"                                                                                                ",
"                                                                                                ",
"                                                                                                ",
"                                                                                                ",
"................................................................................................",
"................................................................................................",
"................................................................................................",
"................................................................................................",
"................................................................................................",
"................................................................................................",
"++++++++++++++++++++++++++++++++++++++++++++++++++++++++++++++++++++++++++++++++++++++++++++++++",
"++++++++++++++++++++++++++++++++++++++++++++++++++++++++++@@@+++++++++++++++++++++++++++++++++++",
"++++++++++++++++++++++++++++++++++++++++++++++++++++++++@@##$$$+++++++++++++++++++++++++++++++++",
"+++%%%+++%%%+++%%%+++%%%+++%%%+++%%%+++%%%+++%%%+++%%%+@##$$&**$%%+++%%%+++%%%+++%%%+++%%%+++%%%",
"+++%%%+++%%%+++%%%+++%%%+++%%%+++%%%+++%%%+++%%%+++%%%@##$&*===*$%+++%%%+++%%%+++%%%+++%%%+++%%%",
"+++%%%+++%%%+++%%%+++%%%+++%%%+++%%%+++%%%+++%%%+++%%-##$&*=====&$+++%%%+++%%%+++%%%+++%%%+++%%%",
"%%%%%%%%%%%%%%%%%%%%%%%%%%%%%%%%%%%%%%%%%%%%%%%%%%%%%@##$*======*$%%%%%%%%%%%%%%%%%%%%%%%%%%%%%%",
"%%%%%%%%%%%%%%%%%%%%%%%%%%%%%%%%%%%%%%%%%%%%%%%%%%%%-###$*======$;%%%%%%%%%%%%%%%%%%%%%%%%%%%%%%",
"%%%%%%%%%%%%%%%%%%%%%%%%%%%%%%%%%%%%%%%%%%%%%%%%%%%%@##$&=*$;&=*;>%%%%%%%%%%%%%%%%%%%%%%%%%%%%%%",
",,,,,,,,,,,,,,,,,,,,,,,,,,,,,,,,,,,,,,,,,,,,,,,,,,,-###$*=&;>;**$;,,,,,,,,,,,,,,,,,,,,,,,,,,,,,,",
",,,,,,,,,,,,,,,,,,,,,,,,,,,,,,,,,,,,,,,,,,,,,,,,,,,@##@$==&$;&**&&,,,,,,,,,,,,,,,,,,,,,,,,,,,,,,",
",,,,,,,,,,,,,,,,,,,,,,,,,,,,,,,,,,,,,,,,,,,,,,,,,,-###@$==*&&*=&==&,,,,,,,,,,,,,,,,,,,,,,,,,,,,,",
"..................................................-##@@$*==*=====&=&............................",
"...............................................=..-##@@$&=====$$&===&...........................",
"................................................=-###@@@$*==&&&&&$$$$$..........................",
",,,,,,,,,,,,,,,,,,,,,,,,,,,,,,,,,,,,,,,,,,,,,,,,,@##@@@#$&==*&*&$,,,,,,,,,,,,,,,,,,,,,,,,,,,,,,,",
",,,,,,,,,,,,,,,,,,,,,,,,,,,,,,,,,,,,,,,,,,,,,,,,-###@@@#@$*=&&&$,,,,,,,,,,,,,,,,,,,,,,,,,,,,,,,,",
",,,,,,,,,,,,,,,,,,,,,,,,,,,,,,,,,,,,,,,,,,,,,,,,@###@@@#@$&====$,,,,,,,,,,,,,,,,,,,,,,,,,,,,,,,,",
",,,''',,,''',,,''',,,''',,,''',,,''',,,''',,,''-#@##@@##@@$*=**$'',,,''',,,''',,,''',,,''',,,'''",
",,,''',,,''',,,''',,,''',,,''',,,''',,,''',===*&#@##@@###@$&***$@',,,''',,,''',,,''',,,''',,,'''",
",,,''',,,''',,,''',,,''',,,''',,,''',,,''',,,'-@#@@#@@###@@$$$$@@',,,''',,,''',,,''',,,''',,,'''",
"''',,,''',,,''',,,''',,,''',,,''',,,''',,,''',-##@@#@@@###@@@@@@@*==',,,''',,,''',,,''',,,''',,,",
"''',,,''',,,''',,,''',,,''',,,''',,,''',,,''',-###@@@@@#####@@@@@,''',,,''',,,''',,,''',,,''',,,",
"''',,,''',,,''',,,''',,,''',,,''',,,''',,,'''-@###*&@@@######@@@@@''',,,''',,,''',,,''',,,''',,,",
"'''''''''''''''''''''''''''''''''''''''''''''@###=&@@@@#@##@##@@@@''''''''''''''''''''''''''''''",
"''''''''''''''''''''''''''''''''''''''''''''-@##=##@-@##&*#@##@@@@''''''''''''''''''''''''''''''",
"''''''''''''''''''''''''''''''''''''''''''''-@#=###@-@#@&=@@###&=@''''''''''''''''''''''''''''''",
"...........................................-@@##@###-@@@@=@@#@#@@=@.............................",
"...........................................-@####@##-@@@@=@@@@##@#=.............................",
"..........................................-@@####@@#@-@@@=@@@@##@@#.............................",
"))))))))))))))))))))))))))))))))))))))))))-@@#####@@@-@@@----@@#@@@)))))))))))))))))))))))))))))",
")))))))))))))))))))))))))))))))))))))))))-@@@@#####@@-@@------@##@#@))))))))))))))))))))))))))))",
")))))))))))))))))))))))))))))))))))))))))-@@@@#####@@-@-)----@-##@#@))))))))))))))))))))))))))))",
"''')))''')))''')))''')))''')))''')))'''))-@@@@##@###@@--'---@@-@###@')))''')))''')))''')))''')))",
"''')))''')))''')))''')))''')))''')))'''))-@@@@###@@#@@-''---@@-@###@')))''')))''')))''')))''')))",
"''')))''')))''')))''')))''')))''')))'''))-@@@@@###@@#@-'----@--@###@@)))''')))''')))''')))''')))",
"))))))))))))))))))))))))))))))))))))))))))-@@@@####@@@-)---@@--@###@@)))))))))))))))))))))))))))",
")))))))))))))))))))))))))))))))))))))))))--@@@@@####@@@---@@--@@###@@)))))))))))))))))))))))))))",
")))))))))))))))))))))))))))))))))))))))))-@-@@@@#####@@@-@@--@#@##@@@)))))))))))))))))))))))))))",
"!!!!!!!!!!!!!!!!!!!!!!!!!!!!!!!!!!!!!!!!!-@-@@@@######@-----@#####@@@@!!!!!!!!!!!!!!!!!!!!!!!!!!",
"!!!!!!!!!!!!!!!!!!!!!!!!!!!!!!!!!!!!!!!!--@#-@@@@#@##@--@@@@@@#@##@@#@!!!!!!!!!!!!!!!!!!!!!!!!!!",
"!!!!!!!!!!!!!!!!!!!!!!!!!!!!!!!!!!!!!!!!-@##-@@@@#-@#--@#@@@@@#@##@@##!!!!!!!!!!!!!!!!!!!!!!!!!!",
"!!!!!!!!!!!!!!!!!!!!!!!!!!!!!!!!!!!!!!!-@@##-@@@@@--@-$@#@@#@@@@##@@##!!!!!!!!!!!!!!!!!!!!!!!!!!",
"!!!!!!!!!!!!!!!!!!!!!!!!!!!!!!!!!!!!!!!-@###@-@@@@---&&$$@@##@@###@@@#@!!!!!!!!!!!!!!!!!!!!!!!!!",
"!!!!!!!!!!!!!!!!!!!!!!!!!!!!!!!!!!!!!!--####@-@@@---&**=*&@##@@##@@@@#@!!!!!!!!!!!!!!!!!!!!!!!!!",
".................................-....--@##@#@-@@--&**====&##@@##@@@@#@.........................",
".............................------..--@@@@##@-----$**=====$##@##@@@@#@.........................",
"..............................-@@@@---@@@@##@@-@#-@$&*&===&=$#@##@@#@#@-........................",
"!!!!!!!!!!!!!!!!!!!!!!!!!!!!!!!-@@@@@@##@###@@@##@@@$*$=&=$&=#@@#@@#@##-!!!!!!!!!!!!!!!!!!!!!!!!",
"!!!!!!!!!!!!!!!!!!!!!!!--!!!!!----@@@#@@###@@@@##@@@&&$*$*$$$&@@#@@#@##-!!!!!!!!!!!!!!!!!!!!!!!!",
"!!!!!!!!!!!!!!!!!!!!!!-----!!!!!!!--@@@@#@@@@@###@@@@$*$*$$@###@@@@#@##@!!!!!!!!!!!!!!!!!!!!!!!!",
")))!!!)))!!!)))!!!)))!!!-@@--!)---@@@@@@@@@@@@##@@@@###$$$@@###@@@##@@#@)))''')))!!!)))!!!)))!!!",
")))!!!)))!!!)))!!!)))!!!)-@@@--@@@@@@#@@@###@@@#@@@@###@##@@##@@@@##@@#@-))''')))!!!)))!!!)))!!!",
")))!!!)))!!!)))!!!)))!!!))--@@@@@@@##@@####@@@##@@@####@##@@@#@@@##@@@##-))''')))!!!)))!!!)))!!!",
"!!!!!!!!!!!!!!!!!!!!!!!!!!-@@@@@@########@@@@@#@@@@####@##@@@##@@##@@@@#-!!!!!!!!!!!!!!!!!!!!'''",
"!!!!!!!!!!!!!!!!!!!!!!!!!-@@@@#######@@@@@@@@##@@@#####@##@@@@#@###@@@@--!!!!!!!!!!!!!!!!!!!!'''",
"!!!!!!!!!!!!!!!!!!!!!!!---@####@@@@@@@@@@#@@##@@@@####@@@#@@@#@@##@@@@@--!!!!!!!!!!!!!!!!!!!!'''",
"!!!!!!!!!!!!!!!!!!!!!!--!---@@@@@@@@@@###@@##@@@@@####@@@#@@@#@###@@@#@--!!!!!!!!)))'''!!!!!!!!!",
"!!!!!!!!!!!!!!!!!!!!!!!!!!!!--@@@@@@###@@@@#@@@@@#####@@@##@@####@@@@@#-!!!!!!!!!)))'''!!!!!!!!!",
"!!!!!!!!!!!!!!!!!!!!!!!!!!!!!!-@@@####@@@@#@@@@@@#####@@@##@@@###@@@@@#-!!!!!!!!!)))'''!!!!!!!!!",
"!!!!!!!!!!!!!!!!!!!!!!!!!!!!!-@######@@@@@@@@@@@@#@##@@@@###@@##@@@@@@@-!!!!!!!!!!!!''')))!!!!!!",
"!!!!!!!!!!!!!!!!!!!!!!!!!!!!----@##@@@@@@@@@@@@@##@##@@@@@###@@#@-@-@!@-!!!!!!!!!!!!''')))!!!!!!",
"!!!!!!!!!!!!!!!!!!!!!!!!!!!!!!!!-@@@-@@@@@@@@@@@#@@##@@@@@####@@@----!-!!!!!!!!!!!!!''')))!!!!!!",
")))))))))))))))))))))))))))))))-----)-@@@@@@@@@##@@#@@@@@@@##@@@-)--))))))))))))))))))))))))))))",
"))))))))))))))))))))))))))))))))))))))-@@@@@@@@#@@##@@@@-@@#@@--))-)))))))))))))))))))))))))))))",
"))))))))))))))))))))))))))))))))))))--@@@@@@@@##@@#@@@@@)-@@@)))))))))))))))))))))))))))))))))))",
"...................................--@@@@@----#-@@#@@@@@..-@....................................",
".................................-----.----..--.-@@@@@@....-....................................",
".................................................--@@...........................................",
"!!!!!!!!!!!!!!!!!!!!!!!!!!!!!!!!!!!!!!!!!!!!!!!!!!!-@!!!!!!!!!!!!!!!!!!!!!!!!!!!!!!!!!!!!!!!!!!!",
"!!!!!!!!!!!!!!!!!!!!!!!!!!!!!!!!!!!!!!!!!!!!!!!!!!!!!!!!!!!!!!!!!!!!!!!!!!!!!!!!!!!!!!!!!!!!!!!!",
"!!!!!!!!!!!!!!!!!!!!!!!!!!!!!!!!!!!!!!!!!!!!!!!!!!!!!!!!!!!!!!!!!!!!!!!!!!!!!!!!!!!!!!!!!!!!!!!!",
"))))))))))))))))))))))))))))))))))))))))))))))))))))))))))))))))))))))))))))))))))))))))))))))))",
"))))))))))))))))))))))))))))))))))))))))))))))))))))))))))))))))))))))))))))))))))))))))))))))))",
"))))))))))))))))))))))))))))))))))))))))))))))))))))))))))))))))))))))))))))))))))))))))))))))))",
"))))))))))))))))))))))))))))))))))))))))))))))))))))))))))))))))))))))))))))))))))))))))))))))))",
"))))))))))))))))))))))))))))))))))))))))))))))))))))))))))))))))))))))))))))))))))))))))))))))))",
"))))))))))))))))))))))))))))))))))))))))))))))))))))))))))))))))))))))))))))))))))))))))))))))))",
"))))))))))))))))))))))))))))))))))))))))))))))))))))))))))))))))))))))))))))))))))))))))))))))))",
"))))))))))))))))))))))))))))))))))))))))))))))))))))))))))))))))))))))))))))))))))))))))))))))))",
"))))))))))))))))))))))))))))))))))))))))))))))))))))))))))))))))))))))))))))))))))))))))))))))))",
"''')))''')))''')))''')))''')))''')))''')))''')))''')))''')))''')))''')))''')))''')))''')))''')))",
"''')))''')))''')))''')))''')))''')))''')))''')))''')))''')))''')))''')))''')))''')))''')))''')))",
"''')))''')))''')))''')))''')))''')))''')))''')))''')))''')))''')))''')))''')))''')))''')))''')))"};
