/* XPM */
static char * exittest_xpm[] = {
"96 96 24 1",
" 	c #080800",
".	c #5028B8",
"+	c #7850E0",
"@	c #383838",
"#	c #582828",
"$	c #302010",
"%	c #781818",
"&	c #980808",
"*	c #382818",
"=	c #700048",
"-	c #980020",
";	c #483008",
">	c #B80000",
",	c #584018",
"'	c #480068",
")	c #200090",
"!	c #808080",
"~	c #0000B0",
"{	c #685020",
"]	c #080850",
"^	c #080870",
"/	c #806838",
"(	c #E0E0E0",
"_	c #907840",
"                                           ..++@@@++..                                          ",
"                                           ..++@@@++..                                          ",
"                                           ..++###++..                                          ",
"                                           ..++###++..                                          ",
"                                           ###########@@                                        ",
"                                           ###########@@                                        ",
"$$$$$$$$$$$$$$$$$$$$$$$$$$$$$$$$$$$$$$$$$$$..++###@@@@++..$$$$$$$$$$$$$$$$$$$$$$$$$$$$$$$$$$$$$$",
"$$$$$$$$$$$$$$$$$$$$$$$$$$$$$$$$$$$$$$$$$$$..++###@@@@++..$$$$$$$$$$$$$$$$$$$$$$$$$$$$$$$$$$$$$$",
"$$$$$$$$$$$$$$$$$$$$$$$$$$$$$$$$$$$$$$$$$$$..++###%%%%++..$$$$$$$$$$$$$$$$$$$$$$$$$$$$$$$$$$$$$$",
"$$$$$$$$$$$$$$$$$$$$$$$$$$$$$$$$$$$$$$$$$$$..++###%%%%++..$$$$$$$$$$$$$$$$$$$$$$$$$$$$$$$$$$$$$$",
"$$$$$$$$$$$$$$$$$$$$$$$$$$$$$$$$$$$$$%%%%%%%%%%%%%%%%%&&&&&&$$$$$$$$$$$$$$$$$$$$$$$$$$$$$$$$$$$$",
"$$$$$$$$$$$$$$$$$$$$$$$$$$$$$$$$$$$$$%%%%%%%%%%%%%%%%%&&&&&&$$$$$$$$$$$$$$$$$$$$$$$$$$$$$$$$$$$$",
"***************************==****%%%%%%%%%%%%&&&&&&&&&&&&&----==**==****************************",
"***************************==****%%%%%%%%%%%%&&&&&&&&&&&&&----==**==****************************",
"***************************************..++&&&&&&&&&&&----++..**********************************",
"***;;;***;;;***;;;***;;;***;;;***;;;***..++&&&&&&&&&&&----++..*;;;***;;;***;;;***;;;***;;;***;;;",
"***;;;***;;;***;;;***;;;***;;;***;;;***..++&&&&>>>>>----==++..*;;;***;;;***;;;***;;;***;;;***;;;",
"***;;;***;;;***;;;***;;;***;;;***;;;***..++&&&&>>>>>----==++..*;;;***;;;***;;;***;;;***;;;***;;;",
";;;;;;;;;;;;;;;;;;;;;;;;;;;;;;;;;;;;;;;..++&&>>>>>------==++..;;;;;;;;;;;;;;;;;;;;;;;;;;;;;;;;;;",
";;;;;;;;;;;;;;;;;;;;;;;;;;;;;;;;;;;;;;;..++&&>>>>>------==++..;;;;;;;;;;;;;;;;;;;;;;;;;;;;;;;;;;",
";;;;;;;;;;;;;;;;;;;;;;;;;;;;;%%%%&&&&&&&&-------------==============;;;;;;;;;;;;;;;;;;;;;;;;;;;;",
",,,,,,,,,,,,,,,,,,,,,,,,,,,,,%%%%&&&&&&&&-------------==============,,,,,,,,,,,,,,,,,,,,,,,,,,,,",
",,,,,,,,,,,,,,,,,,,%%,,%%%%%%&&&&&&&&------=============''''====''''======,,)))),,,,,,,,,,,,,,,,",
",,,,,,,,,,,,,,,,,,,%%,,%%%%%%&&&&&&&&------=============''''====''''======,,)))),,,,,,,,,,,,,,,,",
"$$$$$$$$$$$$$$$$$$$%%$$%%%%%%&&&&&&&&------=============''''====''''======$$))))$$$$$$$$$$$$$$$$",
"$$$$$$$$$$$$$$$$$$$$$$$$$$$$$..++==----========'''''''''''''''''++..$$$$$$$$$$$$$$$$$$$$$$$$$$$$",
"$$$$$$$$$$$$$$$$$$$$$$$$$$$$$..++==----========'''''''''''''''''++..$$$$$$$$$$$$$$$$$$$$$$$$$$$$",
",,,,,,,,,,,,,,,,,,,,,,,,,,,,,..++=========='''''''))))))!!''''''++..,,,,,,,,,,,,,,,,,,,,,,,,,,,,",
",,,,,,,,,,,,,,,,,,,,,,,,,,,,,..++=========='''''''))))))!!''''''++..,,,,,,,,,,,,,,,,,,,,,,,,,,,,",
",,,,,,,,,,,,,,,,,,,,,,,,,,,,,..++''''========'')))))~~~~))''''''++..,,,,,,,,,,,,,,,,,,,,,,,,,,,,",
",,,{{{,,,{{{,,,{{{,,,{{{,,,{{..++''''========'')))))~~~~))''''''++..,{{{,,,{{{,,,{{{,,,{{{,,,{{{",
",,,{{{,,,{{{,,,{{{,,,{{{,]]'''''''''''''''')))))))~~~~~~))))''''^^^^^^^^^^,{{{,,,{{{,,,{{{,,,{{{",
",,,{{{,,,{{{,,,{{{,,,{{{,]]'''''''''''''''')))))))~~~~~~))))''''^^^^^^^^^^,{{{,,,{{{,,,{{{,,,{{{",
"{{{,,,{{{,,,{{{,,,{{{,,,{..++^^''''''^^^^'''''')))))))))))))''^^^^^^^^++..{,,,{{{,,,{{{,,,{{{,,,",
"{{{,,,{{{,,,{{{,,,{{{,,,{..++^^''''''^^^^'''''')))))))))))))''^^^^^^^^++..{,,,{{{,,,{{{,,,{{{,,,",
"{{{,,,{{{,,,{{{,,,{{{^^^^^^^^^^^^^^^^^^^^^^'''''''''''''^^^^^^^^]]]]^^^^^^^^,,{{{,,,{{{,,,{{{,,,",
"{{{{{{{{{{{{{{{{{{{{{^^^^^^^^^^^^^^^^^^^^^^'''''''''''''^^^^^^^^]]]]^^^^^^^^{{{{{{{{{{{{{{{{{{{{",
"{{{{{{{{{{{{{{{{{{{{{{{{{{{..++]]]]^^^^'''''''''''''^^^^^^]]]]]]]]]]]]]]++..{{{{{{{{{{{{{{{{{{{{",
"{{{{{{{{{{{{{{{{{{{{{{{{{{{..++]]]]^^^^'''''''''''''^^^^^^]]]]]]]]]]]]]]++..{{{{{{{{{{{{{{{{{{{{",
"$$$$$$$$$$$$$$$$$$$$$$$$$$$..++]]]]]]^^^^^^^^^^^^^^^^^]]]]]]@@@@@@@@]]]]++..$$$$$$$$$$$$$$$$$$$$",
"$$$$$$$$$$$$$$$$$$$$$$$$$$$..++]]]]]]^^^^^^^^^^^^^^^^^]]]]]]@@@@@@@@]]]]++..$$$$$$$$$$$$$$$$$$$$",
"$$$$$$$$$$$$$$$$$$$$$$$$$$$..++]]]]@@@@]]]]]]]]]]]^^^^^^^^^^]]]]@@]]]]]]++..$$$$$$$$$$$$$$$$$$$$",
"///////////////////////////..++]]]]@@@@]]]]]]]]]]]^^^^^^^^^^]]]]@@]]]]]]++..////////////////////",
"///////////////]]//]]]]]]]]]]]]]]]]]]@@@@@@^^^^^^^^^^^^^^^^^^^]]]]]]]]]]]]]]]]//////////////////",
"///////////////]]//]]]]]]]]]]]]]]]]]]@@@@@@^^^^^^^^^^^^^^^^^^^]]]]]]]]]]]]]]]]//////////////////",
"{{{///{{{///{{{///{{{///{..++]]]]]]@@@@]]]]]]]]]]]^^^^^^]]]]]]++..{{{///{{{///{{{///{{{///{{{///",
"{{{///{{{///{{{///{{{///{..++]]]]]]@@@@]]]]]]]]]]]^^^^^^]]]]]]++..{{{///{{{///{{{///{{{///{{{///",
"{{{///{{{///{{{///{{{///{..++@@@@]]]]((]]]]^^^^^^^^^]]]]]]]]]]++..{{{///{{{///{{{///{{{///{{{///",
"/////////////////////////..++@@@@]]]]((]]]]^^^^^^^^^]]]]]]]]]]++..//////////////////////////////",
"/////////////////////////..++@@]]]]]]]]]]^^^^^^]]]]]]]]]]]@@@@++..//////////////////////////////",
"/////////////////////////..++@@]]]]]]]]]]^^^^^^]]]]]]]]]]]@@@@++..//////////////////////////////",
"_____________________]]]]]]]]]]]]]]]]]]^^^^^^^^^^^^^^^]]]]]]]]]]]]]]]]]]]]__]]__________________",
"_____________________]]]]]]]]]]]]]]]]]]^^^^^^^^^^^^^^^]]]]]]]]]]]]]]]]]]]]__]]__________________",
"___________________________..++]]@@@@]]]]]]]]^^^^^^^^^^^^^]]++..________________________________",
"___________________________..++]]@@@@]]]]]]]]^^^^^^^^^^^^^]]++..________________________________",
"___________________________..++]]@@'''''''''']]]]]]]^^^^]]]]++..________________________________",
"___________________________..++]]@@'''''''''']]]]]]]^^^^]]]]++..________________________________",
"$$$$$$$$$$$$$$$$$$$$$$$]]]]]]]]]]]]'''''''''''']]]]]]]]]]]]]]]]]''''''''''$$$$$$$$$$$$$$$$$$$$$$",
"$$$$$$$$$$$$$$$$$$$$$$$]]]]]]]]]]]]'''''''''''']]]]]]]]]]]]]]]]]''''''''''$$$$$$$$$$$$$$$$$$$$$$",
"$$$$$$$$$$$$$$$$$$$$$$$$$$$$$$$$$$$$$..++]]''''''''']]]]]]]]]]]]]]''++..$$$$$$$$$$$$$$$$$$$$$$$$",
"_____________________________________..++]]''''''''']]]]]]]]]]]]]]''++..________________________",
"_____________________________________..++]]]]]]'''''''''''''''====''++..________________________",
"_____________________________________..++]]]]]]'''''''''''''''====''++..________________________",
"///___///___///___///___///___///___/..++'''''''''========''====''''++..///{{{///___///___///___",
"///___///___///___///___///___///___/..++'''''''''========''====''''++..///{{{///___///___///___",
"///___///___///___///___///___///___/..++''''=========!!''''''''''''++..///{{{///___///___///___",
"_____________________________________..++''''=========!!''''''''''''++.._____________________{{{",
"_________________''''__''''''''''''''==''''''''=====''''''''''''''''''''''___________________{{{",
"_________________''''__''''''''''''''==''''''''=====''''''''''''''''''''''___________________{{{",
"_______________________________..++==&&======&&&&&======''''++.._________________///{{{_________",
"_______________________________..++==&&======&&&&&======''''++.._________________///{{{_________",
"_______________________________..++''''%%%%%%==&&&&&&&==''''++.._________________///{{{_________",
"_______________________________..++''''%%%%%%==&&&&&&&==''''++..____________________{{{///______",
"_______________________________..++''''%%%%%%==&&&&&&&==''''++..____________________{{{///______",
"_______________________________..++======&&&&&&&&&========''++..____________________{{{///______",
"///////////////////////////////..++======&&&&&&&&&========''++..////////////////////////////////",
"///////////////////////''''''==============&&&&&&&====''''''''''''''''''''//////////////////////",
"///////////////////////''''''==============&&&&&&&====''''''''''''''''''''//////////////////////",
"$$$$$$$$$$$$$$$$$$$$$$$$$$$$$$$$$$$$$$$..++&&>>&&&&&====++..$$$$$$$$$$$$$$$$$$$$$$$$$$$$$$$$$$$$",
"$$$$$$$$$$$$$$$$$$$$$$$$$$$$$$$$$$$$$$$..++&&>>&&&&&====++..$$$$$$$$$$$$$$$$$$$$$$$$$$$$$$$$$$$$",
"$$$$$$$$$$$$$$$$$$$$$$$$$$$$$$$$$$$$$$$..++&&>>>>>>>&&&&++..$$$$$$$$$$$$$$$$$$$$$$$$$$$$$$$$$$$$",
"_______________________________________..++&&>>>>>>>&&&&++..____________________________________",
"___________________________''''''====&&&&&&>>>>&&&&&&&&&&&&&&&========__====____________________",
"___________________________''''''====&&&&&&>>>>&&&&&&&&&&&&&&&========__====____________________",
"///////////////////////////////////..++&&&&&&&&=====&&&&====++..////////////////////////////////",
"///////////////////////////////////..++&&&&&&&&=====&&&&====++..////////////////////////////////",
"///////////////////////////////////..++======(('''==========++..////////////////////////////////",
"///////////////////////////////////..++======(('''==========++..////////////////////////////////",
"/////////////////////////////////==========#############==========//==//////////////////////////",
"/////////////////////////////////==========#############==========//==//////////////////////////",
"///////////////////////////////////////..++==##@@@@@======//////////////////////////////////////",
"///////////////////////////////////////..++==##@@@@@======//////////////////////////////////////",
"///////////////////////////////////////..++====@@@@@++..////////////////////////////////////////",
"{{{///{{{///{{{///{{{///{{{///{{{///{{{..++====@@@@@++..{///{{{///{{{///{{{///{{{///{{{///{{{///",
"{{{///{{{///{{{///{{{///{{{///{{{///{{{///{..++@@@@@++..{///{{{///{{{///{{{///{{{///{{{///{{{///",
"{{{///{{{///{{{///{{{///{{{///{{{///{{{///{..++@@@@@++..{///{{{///{{{///{{{///{{{///{{{///{{{///"};
