/* XPM */
static char * exit_xpm[] = {
"65 96 17 1",
" 	c None",
".	c #5028B8",
"+	c #7850E0",
"@	c #383838",
"#	c #582828",
"$	c #781818",
"%	c #980808",
"&	c #700048",
"*	c #980020",
"=	c #B80000",
"-	c #480068",
";	c #200090",
">	c #808080",
",	c #0000B0",
"'	c #080850",
")	c #080870",
"!	c #E0E0E0",
"                            ..++@@@++..                          ",
"                            ..++@@@++..                          ",
"                            ..++###++..                          ",
"                            ..++###++..                          ",
"                            ###########@@                        ",
"                            ###########@@                        ",
"                            ..++###@@@@++..                      ",
"                            ..++###@@@@++..                      ",
"                            ..++###$$$$++..                      ",
"                            ..++###$$$$++..                      ",
"                      $$$$$$$$$$$$$$$$$%%%%%%                    ",
"                      $$$$$$$$$$$$$$$$$%%%%%%                    ",
"            &&    $$$$$$$$$$$$%%%%%%%%%%%%%****&&  &&            ",
"            &&    $$$$$$$$$$$$%%%%%%%%%%%%%****&&  &&            ",
"                        ..++%%%%%%%%%%%****++..                  ",
"                        ..++%%%%%%%%%%%****++..                  ",
"                        ..++%%%%=====****&&++..                  ",
"                        ..++%%%%=====****&&++..                  ",
"                        ..++%%=====******&&++..                  ",
"                        ..++%%=====******&&++..                  ",
"              $$$$%%%%%%%%*************&&&&&&&&&&&&&&            ",
"              $$$$%%%%%%%%*************&&&&&&&&&&&&&&            ",
"    $$  $$$$$$%%%%%%%%******&&&&&&&&&&&&&----&&&&----&&&&&&  ;;;;",
"    $$  $$$$$$%%%%%%%%******&&&&&&&&&&&&&----&&&&----&&&&&&  ;;;;",
"    $$  $$$$$$%%%%%%%%******&&&&&&&&&&&&&----&&&&----&&&&&&  ;;;;",
"              ..++&&****&&&&&&&&-----------------++..            ",
"              ..++&&****&&&&&&&&-----------------++..            ",
"              ..++&&&&&&&&&&-------;;;;;;>>------++..            ",
"              ..++&&&&&&&&&&-------;;;;;;>>------++..            ",
"              ..++----&&&&&&&&--;;;;;,,,,;;------++..            ",
"              ..++----&&&&&&&&--;;;;;,,,,;;------++..            ",
"          ''----------------;;;;;;;,,,,,,;;;;----))))))))))      ",
"          ''----------------;;;;;;;,,,,,,;;;;----))))))))))      ",
"          ..++))------))))------;;;;;;;;;;;;;--))))))))++..      ",
"          ..++))------))))------;;;;;;;;;;;;;--))))))))++..      ",
"      ))))))))))))))))))))))-------------))))))))''''))))))))    ",
"      ))))))))))))))))))))))-------------))))))))''''))))))))    ",
"            ..++''''))))-------------))))))''''''''''''''++..    ",
"            ..++''''))))-------------))))))''''''''''''''++..    ",
"            ..++'''''')))))))))))))))))''''''@@@@@@@@''''++..    ",
"            ..++'''''')))))))))))))))))''''''@@@@@@@@''''++..    ",
"            ..++''''@@@@'''''''''''))))))))))''''@@''''''++..    ",
"            ..++''''@@@@'''''''''''))))))))))''''@@''''''++..    ",
"''  ''''''''''''''''''@@@@@@)))))))))))))))))))''''''''''''''''  ",
"''  ''''''''''''''''''@@@@@@)))))))))))))))))))''''''''''''''''  ",
"          ..++''''''@@@@'''''''''''))))))''''''++..              ",
"          ..++''''''@@@@'''''''''''))))))''''''++..              ",
"          ..++@@@@''''!!'''')))))))))''''''''''++..              ",
"          ..++@@@@''''!!'''')))))))))''''''''''++..              ",
"          ..++@@''''''''''))))))'''''''''''@@@@++..              ",
"          ..++@@''''''''''))))))'''''''''''@@@@++..              ",
"      '''''''''''''''''')))))))))))))))''''''''''''''''''''  ''  ",
"      '''''''''''''''''')))))))))))))))''''''''''''''''''''  ''  ",
"            ..++''@@@@'''''''')))))))))))))''++..                ",
"            ..++''@@@@'''''''')))))))))))))''++..                ",
"            ..++''@@----------'''''''))))''''++..                ",
"            ..++''@@----------'''''''))))''''++..                ",
"        ''''''''''''------------'''''''''''''''''----------      ",
"        ''''''''''''------------'''''''''''''''''----------      ",
"                      ..++''---------''''''''''''''--++..        ",
"                      ..++''---------''''''''''''''--++..        ",
"                      ..++''''''---------------&&&&--++..        ",
"                      ..++''''''---------------&&&&--++..        ",
"                      ..++---------&&&&&&&&--&&&&----++..        ",
"                      ..++---------&&&&&&&&--&&&&----++..        ",
"                      ..++----&&&&&&&&&>>------------++..        ",
"                      ..++----&&&&&&&&&>>------------++..        ",
"  ----  --------------&&--------&&&&&----------------------      ",
"  ----  --------------&&--------&&&&&----------------------      ",
"                ..++&&%%&&&&&&%%%%%&&&&&&----++..                ",
"                ..++&&%%&&&&&&%%%%%&&&&&&----++..                ",
"                ..++----$$$$$$&&%%%%%%%&&----++..                ",
"                ..++----$$$$$$&&%%%%%%%&&----++..                ",
"                ..++----$$$$$$&&%%%%%%%&&----++..                ",
"                ..++&&&&&&%%%%%%%%%&&&&&&&&--++..                ",
"                ..++&&&&&&%%%%%%%%%&&&&&&&&--++..                ",
"        ------&&&&&&&&&&&&&&%%%%%%%&&&&--------------------      ",
"        ------&&&&&&&&&&&&&&%%%%%%%&&&&--------------------      ",
"                        ..++%%==%%%%%&&&&++..                    ",
"                        ..++%%==%%%%%&&&&++..                    ",
"                        ..++%%=======%%%%++..                    ",
"                        ..++%%=======%%%%++..                    ",
"            ------&&&&%%%%%%====%%%%%%%%%%%%%%%&&&&&&&&  &&&&    ",
"            ------&&&&%%%%%%====%%%%%%%%%%%%%%%&&&&&&&&  &&&&    ",
"                    ..++%%%%%%%%&&&&&%%%%&&&&++..                ",
"                    ..++%%%%%%%%&&&&&%%%%&&&&++..                ",
"                    ..++&&&&&&!!---&&&&&&&&&&++..                ",
"                    ..++&&&&&&!!---&&&&&&&&&&++..                ",
"                  &&&&&&&&&&#############&&&&&&&&&&  &&          ",
"                  &&&&&&&&&&#############&&&&&&&&&&  &&          ",
"                        ..++&&##@@@@@&&&&&&                      ",
"                        ..++&&##@@@@@&&&&&&                      ",
"                        ..++&&&&@@@@@++..                        ",
"                        ..++&&&&@@@@@++..                        ",
"                            ..++@@@@@++..                        ",
"                            ..++@@@@@++..                        "};
