/* XPM */
static char *_34d5f7ca69749aceb4207ceedbb8604OfJPCnTyyB2SV3BV[] = {
/* columns rows colors chars-per-pixel */
"32 32 102 2 ",
"   c black",
".  c #090909",
"X  c gray3",
"o  c #010101",
"O  c #606060",
"+  c #585858",
"@  c #727272",
"#  c gray80",
"$  c #C5C5C5",
"%  c gray48",
"&  c DimGray",
"*  c gray7",
"=  c #C3C3C3",
"-  c #69696A",
";  c #696B74",
":  c #6888FC",
">  c #6686F8",
",  c #5D7AE2",
"<  c #5D78D7",
"1  c #676C7C",
"2  c #6883E5",
"3  c #5C79E0",
"4  c #5C79DF",
"5  c #6A8BFC",
"6  c #6787FA",
"7  c #6D8FFC",
"8  c #86AFFC",
"9  c #86ACF0",
"0  c #6C6F75",
"q  c #82AAFA",
"w  c #607FE4",
"e  c #88B2FC",
"r  c #6B8CFC",
"t  c #85AFFC",
"y  c #696C75",
"u  c #6886F0",
"i  c #85AEFA",
"p  c #6382E4",
"a  c #83ABFC",
"s  c #686A73",
"d  c #5E79D8",
"f  c #5F7DE2",
"g  c #81A9F8",
"h  c #6784EE",
"j  c #71747D",
"k  c #6984E5",
"l  c #6888FB",
"z  c #6886F1",
"x  c #C4C4C5",
"c  c #696E81",
"v  c gray43",
"b  c #6B89F0",
"n  c #83A9F0",
"m  c #84A7E5",
"M  c #707379",
"N  c #CDCDCD",
"B  c #C8C8C8",
"V  c #A4A4A4",
"C  c #6B6F75",
"Z  c gray61",
"A  c gray83",
"S  c #111111",
"D  c gray38",
"F  c #A9A9A9",
"G  c #A0A0A0",
"H  c #A5A5A5",
"J  c #686868",
"K  c gray45",
"L  c #9B9B9B",
"P  c None",
"I  c #85ACF1",
"U  c #6C7281",
"Y  c #85AEFB",
"T  c #6B89F1",
"R  c #607EE2",
"E  c #84ADFA",
"W  c #5E7CE4",
"Q  c #617FE4",
"!  c #85AEFC",
"~  c #6A8AFA",
"^  c #88B2FB",
"/  c #86ADF1",
"(  c #6E7581",
")  c #6785EF",
"_  c #5E7BE3",
"`  c #74777D",
"'  c #696E80",
"]  c #6E7079",
"[  c #9B9C9C",
"{  c #696A6A",
"}  c #6B6F74",
"|  c #83A6E5",
" . c #617CD8",
".. c #686B73",
"X. c #82A8EE",
"o. c #5D78D6",
"O. c #698AFA",
"+. c #5D7BE2",
"@. c #5F7EE2",
"#. c #6A8BFB",
"$. c #6B7181",
"%. c #83A9F1",
/* pixels */
"                                                                ",
"                                                                ",
"                                                                ",
"                                                                ",
"                            . . . . X o                         ",
"                            O O O O + X                         ",
"                    o X @ @ # # # # $ % & *                     ",
"                    X + # # @ @ @ @ % $ = &                     ",
"                    @ # - ; : : > , < 1 @ # O .                 ",
"                    @ # ; 2 : : , 3 4 < @ # O .                 ",
"                . O # @ 5 6 3 3 , , 7 8 9 0 # @                 ",
"                . O # @ q w 3 3 6 6 8 e 9 0 # @                 ",
"                @ # 0 9 e e , 6 r t e e t t @ # O .             ",
"                @ # 0 9 e e , 6 r t e e r r @ # O .             ",
"                @ # y u i e 5 : e e , > : : @ # O .             ",
"                @ # y u p i a 5 e e 3 , : : @ # O .             ",
"                @ # s d f g 8 e e 8 6 , , 6 @ # O .             ",
"                @ # y h 3 f 7 8 8 7 6 , , 6 @ # O .             ",
"                & = j k 6 , f g e e f 3 l z % $ + X             ",
"                * & x j 6 , 3 f e e g f z c $ % X o             ",
"                X + $ % z l , , p i 8 7 k j = &                 ",
"                o X % $ c z 6 6 i e e 8 j x & *                 ",
"                    @ # @ v b n 9 9 m M % N O .                 ",
"                    @ # B V y C 0 0 M Z N A O .                 ",
"                S D N F G G G G G G G G G H B @ X o             ",
"                D J F H v v v v v v v v K G V v + X             ",
"            . O G G L v + X             D J G G L v             ",
"            . O v v v & X o             S D v v v &             ",
"                                                                ",
"                                                                ",
"                                                                ",
"                                                                "
};
