/* XPM */
static char *_d7baaa654cc4aeadeb89996fc0d547cLfmyxkPgcnke4eDj[] = {
/* columns rows colors chars-per-pixel */
"32 32 118 2 ",
"   c #3A4466",
".  c #3F4A6B",
"X  c #485574",
"o  c #4C5A78",
"O  c #505E7C",
"+  c #576584",
"@  c #49546F",
"#  c #28293E",
"$  c #212035",
"%  c #323856",
"&  c #3F4863",
"*  c #25253A",
"=  c #1C1A2D",
"-  c #23253C",
";  c #262B44",
":  c #2B314D",
">  c #353E5E",
",  c #313856",
"<  c #202035",
"1  c #181425",
"2  c #3D4869",
"3  c #445070",
"4  c #475473",
"5  c #4A5777",
"6  c #4F5D7D",
"7  c #48526F",
"8  c #33374E",
"9  c #2B2D44",
"0  c #2F3450",
"q  c #343B5A",
"w  c #384162",
"e  c #2D324E",
"r  c #25263D",
"t  c #3B4567",
"y  c #3E496A",
"u  c #414C6D",
"i  c #444F6F",
"p  c #3F4761",
"a  c #272941",
"s  c #404B6C",
"d  c #4C5979",
"f  c #38415E",
"g  c #45526F",
"h  c #3B4565",
"j  c #353C5B",
"k  c #2C304B",
"l  c #212137",
"z  c #23243B",
"x  c #323958",
"c  c #3C4668",
"v  c #2B2F46",
"b  c #414C67",
"n  c #3E4764",
"m  c #2A2D45",
"M  c #22243B",
"N  c #282D47",
"B  c #343C5C",
"V  c #2E3147",
"C  c #39415A",
"Z  c #353B54",
"A  c #222135",
"S  c #1B182B",
"D  c #202136",
"F  c #22253C",
"G  c #262A43",
"H  c #2E334F",
"J  c #353C59",
"K  c #3C4460",
"L  c #363D56",
"P  c #24253A",
"I  c #1E1E33",
"U  c #23273E",
"Y  c #404862",
"T  c #1B182A",
"R  c #191527",
"E  c #1B1A2D",
"W  c #1D1B2F",
"Q  c #1F1E33",
"!  c #222136",
"~  c #242439",
"^  c #252A42",
"/  c #424D6F",
"(  c #526080",
")  c #25263A",
"_  c #26263B",
"`  c #28283D",
"'  c #242438",
"]  c #1C192B",
"[  c #3F4963",
"{  c #424B66",
"}  c #47516C",
"|  c #3D445D",
" . c #1A1729",
".. c #1E1D31",
"X. c #4F5D7C",
"o. c #27283D",
"O. c #24263D",
"+. c #2B2F4A",
"@. c #3E455F",
"#. c #414C6C",
"$. c #47516E",
"%. c #404A66",
"&. c #30344B",
"*. c #3F4969",
"=. c #3F4965",
"-. c #2E3148",
";. c #242437",
":. c #373E58",
">. c #282A41",
",. c #4A5776",
"<. c #272942",
"1. c #272B45",
"2. c #303855",
"3. c #353E5D",
"4. c #1F2035",
"5. c #2B314C",
"6. c #22243A",
"7. c #2C304C",
/* pixels */
"  . X o o O + @ # $ %     . X & * = - ; ; : >             , < 1 ",
"  2 3 4 4 5 6 7 8 9 0 q w . X & * = - ; ; : >         w q e r $ ",
"  t 2 y y . u i 7 p 9 a q . X & * = - ; ; : >         q a r e % ",
"              s d 7 8 9 0 f g & * = - ; ; : > t 2 h j k l z x   ",
"              c s i 7 p 9 v b & * = - ; ; : > 2 3 n m l M N B   ",
"                  s d 7 8 V C Z A S D F F G H J K L P I U : >   ",
"                  c s i 7 Y V A T R S E E W Q ! ~ P - U ^ : >   ",
"                      / ( @ # 1 1 T A ) ) _ ` ' ] = - ; ; : >   ",
"                      / ( @ # 1 1 A Z [ [ { } | ' = - ; ; : >   ",
"                      / ( @ #  ...m n 4 4 5 X.7 8 o.O.U ^ : >   ",
"                      / ( @ # ..+.j h y y . u i 7 @.o.I U : >   ",
"                  t 2 #.$.p 9 a q             s d 7 8 o.O.N B   ",
"                  2 3 %.&.9 0 q w             c s i 7 @.o.z x   ",
"              t 2 *.=.L P z x                     s d 7 8 9 0 , ",
"              2 3 =.-.P - N B                     c s i 7 p 9 < ",
"          t 2 *.=.L P I U : >                         / ( @ # 1 ",
"          2 3 =.-.P - U ^ : >                         / ( @ # 1 ",
", , , , , J K Z A = - ; ; : >                     t 2 #.$.| ;.1 ",
"< < < < < ! ~ A T = - ; ; : >                     2 3 %.&.;.] 1 ",
"$ $ $ ! ~ _ ` ' ] = - ; ; : >                 t 2 *.=.:.>.$ $ $ ",
"% % % J K { } | ' = - ; ; : >                 2 3 =.-.>.H % % % ",
"      2 3 ,.X.7 8 o.O.U ^ : >                 h n :.>.<.q       ",
"      t 2 . u i 7 @.o.I U : >                 j m >.H q w       ",
"              s d 7 8 o.O.1.2.3.3.3.3.3.3.B x e r <.q           ",
"              c s i 7 @.o.4.1.5.5.5.5.5.5.N z r e q w           ",
"                  s d 7 8 o.O.F F F F F F 6.l <.q               ",
"                  c s i 7 @.o.E E E E E E l 7.q w               ",
"                      s d 7 8 ' ] 1 1 R S z x                   ",
"                      c s i 7 | ' 1 1 S D N B                   ",
", , , , , , , q w         / ( @ # R S I U : >                   ",
"< < < < < < < a q         / ( @ # S D U ^ : >                   ",
"1 1 1 1 1 1 1 $ %         / ( @ # = - ; ; : >                   "
};
