/* XPM */
static char * playertest_xpm[] = {
"96 96 14 1",
" 	c None",
".	c #101010",
"+	c #282830",
"@	c #586870",
"#	c #C0E0D8",
"$	c #B08068",
"%	c #F8E0D0",
"&	c #D8B098",
"*	c #F0F0F0",
"=	c #503010",
"-	c #C8D0D0",
";	c #485078",
">	c #080808",
",	c #000818",
"                                      ....+@@#+@                                                ",
"                                     .......+@#+@                                               ",
"                                     .......+.@.+                                               ",
"                                     ............                                               ",
"                                     .....$..%...                                               ",
"                                    .....$..&%..                                                ",
"                                    ....%.&*=&..                                                ",
"                                    ....&$&%%$.                                                 ",
"                                    ....=&&%%.&                                                 ",
"                                   ....==$&%&&$                                                 ",
"                                  ....$$==$&%$                                                  ",
"                                 +@@@###$==$$                                                   ",
"                                 +++@@@@#####@+                                                 ",
"                                +######@@###@+                                                  ",
"                                ++++++@##@@++++                                                 ",
"                              ---****-+@@#####@+;                                               ",
"                             -;>,-*****-+@@##@++-*                                              ",
"                             ;>,,,-*****--+@@+>--*                                              ",
"                             ;>,,,,-****---+-;>-**                                              ",
"                             >,+,,,,-***---+*;>;*-                                              ",
"                             >,+++,,-***--*+*->,--                                              ",
"                             >+++++,,-***-*++->,-;                                              ",
"                             >+++++,,--**-*-+->+-;                                              ",
"                            >>++++++,,-**-**+*>+->                                              ",
"                            >>++++++,>--*-**++>,->                                              ",
"                            >>++++++,>;-**-*++>,-,>                                             ",
"                           >>>++++++,>;-**-*-+,>-,>                                             ",
"                           >>,++++++>;;-**-*-++>-,>                                             ",
"                          >,>+++++++>;;***-*-++>-,>                                             ",
"                          >,>+++++++>;-***-*-++>-,>                                             ",
"                         >,,>+++++++>;-***-*-,,>-,>                                             ",
"                         >,,>++++++,>;-***-*-,,>-;,>                                            ",
"                        >,,,,++++++,>--***-*-,,>-;,>                                            ",
"                        >,,,+++++++>;--***-*-,>;--,>>                                           ",
"                       >,,,,+++++++>---***-*-@@#@-,+>                                           ",
"                      >,,,,++++++++>--****-*-##+@-,++>                                          ",
"                      >,,,,++++++++>--****-*-++@@-,++>                                          ",
"                     >,,,,,++++++++>--****-*-@@+--,+++>                                         ",
"                     >,,,,+++++++++>-*****-*-+##@-,+++>                                         ",
"                     ,,,,,+++++++++>-****-**-@+##@,,@>                                          ",
"                     +@,,+++++++++,--****-**-@@##@,,#>                                          ",
"                      +@@+++++++++,-*****-**-#@##@,#>$                                          ",
"                       ++@@+++++++>-*****-**,##++-#>&@                                          ",
"                         ++######@>******-*-,##@-->@##                                          ",
"                          ;+++++++-******-*-,##>>-;#@@$                                         ",
"                          ;--------*****-**-,,>,>-=$%%$                                         ",
"                         ;--------******-**-++>,>-$=&%$                                         ",
"                         ;--------******-**-++>,>-=&=&$                                         ",
"                         ;--------******-**-++>,>=$&;&$;;                                       ",
"                        ;--------*******-*-+++>,>;=$$$;*;                                       ",
"                        ;--------*******-*-+++>,>;-=&;*;                                        ",
"                        ;--------*******-*-+++>+,>-;;*;.                                        ",
"                       ;---------*******-*-+++,+,>-;-;@..                                       ",
"                       ;--------********-*-+++,+,>-;; @@.                                       ",
"                       ;--------********-*-+++,++>-;   #,.                                      ",
"                       ;--------*******-**-+++,++>;-    *,.                                     ",
"                      ;---------*******-**-+++,++>;-;    *.,                                    ",
"                      ;---------*******-**-++++++,>-;    #@.                                    ",
"                      ;--------********-**-++++++,>-;     *,.                                   ",
"                      ;--------********-**-++++++,>-;      *,.                                  ",
"                      ;--------********-**-++,+++,>-;      #*.,                                 ",
"                     ;---------********-**-++,+++,>-;       *@.                                 ",
"                     ;---------********-**-++,+++,>-;        *,.                                ",
"                     ;---------********-**-++,+++,>;-;       #*..                               ",
"                     ;--------*********-*-+++>+++,>;-;        *@.,                              ",
"                    ;---------*********-*-++,>+++,,>-;         *,.                              ",
"                    ;---------********-**-++,>+++,,>-;          *,.                             ",
"                    ;---------********-**-++,>+++,,>-;           *,.                            ",
"                   ;---@-----*********-**-++,>+++,,>-;            *..                           ",
"                   ;---@-----*********-**-+,,>+++>,>--;           #@.,                          ",
"                   ;---+----@*********-**-+,,>,++>,>;-;            *@,                          ",
"                  ;-@-@+----+******@**-**-+,,>,++>,>;-;             *,.                         ",
"                  ;-+-+@----+******+**-**;+,>,,++>,>;-;              *,.                        ",
"                  ;---+----@+******+**-**;,,>,,++>,>;-;               *..                       ",
"                  >;--@--+-@@*****@+*--**;,,>,,++>,>;-;                *..                      ",
"                  >>;----@-+******@@*;-**;,,>,,++>,>;-;                 *,.                     ",
"                  ,>>;-----+**@+**+**;-**;,,>,,++>,>;-;                  *@.                    ",
"                 >,,> ;----@**@@**+**;-**;,>,,,++>,>;-;                   #@.                   ",
"                 >++>  ;;---******@**;-**;,>+,,++>,>;-;                    ##.                  ",
"                 >++     ;;;*********;-**>,>+,,++>,>;-;                      #.                 ",
"                 >>>     >>,;;;;****-;-**>,,+,,++>,>;-;                                         ",
"                         >>,,>>,;;;;-;-**>,,+,,++>,> ;;                                         ",
"                         >>,,>>,,,,>;;-**>,++,,++>,>                                            ",
"                         >>,,>>,,,,>,,;;;>,++,,++>,>                                            ",
"                         >>,,>>,,,,>,>,,>>,++,,++>,>                                            ",
"                         >>,,>>,,,>>,>,,>>,++,,++>,>                                            ",
"                         >>,,>>,,,>>,>,,>>>++>>++>>>                                            ",
"                           >,>>,,,>>,>,,>  >>>>>>                                               ",
"                            >>>,,,>>> >>   >++>                                                 ",
"                               >>>>        ++++@+                                               ",
"                              ++@@+       +@@@@@@+++                                            ",
"                              +@@#+       =@@@@=;;;@++                                          ",
"                             +@###+       >=;;=@@@@;@;>                                         ",
"                             =;;#;;        >>>>>=;@@;=>                                         ",
"                            >##@;@#+            >>>>>>                                          ",
"                            >;##;##+                                                            "};
