/* XPM */
static char *cd44425f5d5946f9e94625c90213d65bdAxas3vpD5xov7xx_0[] = {
/* columns rows colors chars-per-pixel */
"132 100 19 1 ",
"  c None",
". c black",
"X c #101010",
"o c #181818",
"O c #202020",
"+ c #292931",
"@ c gray22",
"# c #7B4A00",
"$ c #303040",
"% c #292952",
"& c #44445B",
"* c #687878",
"= c #1063B5",
"- c #DE9494",
"; c #C0C8C8",
": c #EFC6C6",
"> c gray91",
", c #FFE7E7",
"< c #FCFEF9",
/* pixels */
"                                                                                                                                    ",
"                                                                                                                                    ",
"                                                                                                                                    ",
"                                                                                                                                    ",
"                                                                                                                                    ",
"                                                                                                                                    ",
"                                                                                                                                    ",
"                                                                                                                                    ",
"                                                                                                                                    ",
"                                                                                                                                    ",
"                                                                                                                                    ",
"                                                                                                                                    ",
"                                                                                                                                    ",
"                                                                                                                                    ",
"                                                                                                                                    ",
"                                                                                                                                    ",
"                                                                                                                                    ",
"                                                                                                                                    ",
"                                                                                                                                    ",
"                                                                                                                                    ",
"                                                                                                                                    ",
"                                                                                                                                    ",
"                                                                                                                                    ",
"                                                                                                                                    ",
"                                                                                                                                    ",
"                                                                                                                                    ",
"                                                                                                                                    ",
"                                                                                                                                    ",
"                                                                                                                                    ",
"                                                                                                                                    ",
"                                                                ...                                                                 ",
"                                                           .....                                                                    ",
"                                                         ....ooo.                                                                   ",
"                                                        ..$$$$$$..                                                                  ",
"                                                       ..$$$oo.$$$..                                                                ",
"                                                     ...$$$$$$$o.$$$....                                                            ",
"                                                      ..&$$$$$$$$oo.$o                                                              ",
"                                                      .$$&$$o$&$$$ooo.                                                              ",
"                                                      ..&&$oo&$.&$$o.                                                               ",
"                                                    ..oo$.$.o&$.$&o$o.                                                              ",
"                                                     ..o$.oo.$$.o$o$o.                                                              ",
"                                                      ..o.o..$o....o  .                                                             ",
"                                                     ..o.:..#...-..o                                                                ",
"                                                      .o.-..<=%:-<.                                                                 ",
"                                                       ...-::-:,:.                                                                  ",
"                                                      o.o..-:,:#:.                                                                  ",
"                                                     .OOO...:-#:.                                                                   ",
"                                                    .O....*-.:-.                                                                    ",
"                                                   .O.OOO..*-..*.                                                                   ",
"                                                  .O.oo@OO..***;..                                                                  ",
"                                                  .O.O@@OO...;>>.O.                                                                 ",
"                                                   .O@@@OoO..;>>.o.                                                                 ",
"                                                  .OO@OOOXoO.;>>.O.                                                                 ",
"                                                  .OOOOOXoO+.;>>...                                                                 ",
"                                                 .OOOOOXXoO+.>>>;.+.                                                                ",
"                                                 .OOOOOX.OoO.>>>;.O.                                                                ",
"                                                .OOOOOX..OoO.>>>;.o.                                                                ",
"                                                .OOOOO. .OoO.>>>>...                                                                ",
"                                                .@OOOX. .OoO.>>>;;.o                                                                ",
"                                                .@@OO.  .Ooo.>>;;;.o                                                                ",
"                                                .@@OO. .OoOo.;;;;;..O                                                               ",
"                                                .O@OO. .Ooo.>>;;;;..o                                                               ",
"                                                .OOOO..OOoo.>>>>>>;..                                                               ",
"                                                 .OO.#.OOo.>>>>>>>>..                                                               ",
"                                                 .OO-#OOoo.>>>>>;;;...                                                              ",
"                                                  #-:-#Oo..>>>>>>>;;..                                                              ",
"                                                   #::#oo.;;;;>>>>>;;.                                                              ",
"                                                   #::-#.....;;;;>>;;.                                                              ",
"                                                  .O#---XXXX..........                                                              ",
"                                                  .oO#-..OOOXX..X.XXXX                                                              ",
"                                                 .oOOO#.OOOOXX...XXXOO.                                                             ",
"                                                 .oOOo..@@OXX....XXO@O.                                                             ",
"                                                .oOOoo.O@@OXX.oo.XXO@O.                                                             ",
"                                                .oOOoo.@@OXX.ooo.XXO@@.                                                             ",
"                                               ..OOOo.O@@OXX.ooo.XXO@@.                                                             ",
"                                               .oOOoo.@@OOX.oooo.XXO@@.                                                             ",
"                                              ..OOOoo.@@OXX.oooo.XXO@@..                                                            ",
"                                              .oOOOo.O@@OX.ooooo.XXO@O..                                                            ",
"                                              .oOOoo.@@OOX.ooooo.XXO@O..                                                            ",
"                                             .oOOOoo.@@OX..ooooo.XXO@O..                                                            ",
"                                             .oOOOo.O@OOX.oooooo.XXOOO..                                                            ",
"                                             .oOOoo.O@OXX.oooooo.XXOOO..                                                            ",
"                                             .oOOoo.@@OX.........XXOO...                                                            ",
"                                             .oooo.O@@OX.       .XXOO...                                                            ",
"                                              .ooo.O@OX.        .XXOO...                                                            ",
"                                               ....@@OX.       .XXXOO..                                                             ",
"                                                 .O@@OX.       .XXOOO.                                                              ",
"                                                 .@@OX.        .XXOOX.                                                              ",
"                                                .O@@XX.        .XXOOX.                                                              ",
"                                                .OOOXX.        .XXOOXX.                                                             ",
"                                               .XOXXX.         .XXXXOOX.                                                            ",
"                                              .O@@@XX.         .XXOOX...                                                            ",
"                                              ....OOX.         .XX...XX...                                                          ",
"                                             .XOOX....         ...XXXOO@OX.                                                         ",
"                                            .XO@@OXX.          .XX.XXXXXXX.                                                         ",
"                                            .XXOOXXX.          ............                                                         ",
"                                            ........                                                                                ",
"                                                                                                                                    ",
"                                                                                                                                    ",
"                                                                                                                                    "
};
