/* XPM */
static char * playertest1_xpm[] = {
"96 96 15 1",
" 	c None",
".	c #080808",
"+	c #282020",
"@	c #A88068",
"#	c #503838",
"$	c #F8D0C0",
"%	c #D0A080",
"&	c #986050",
"*	c #98A0A8",
"=	c #000818",
"-	c #404050",
";	c #282830",
">	c #F0F0F0",
",	c #581040",
"'	c #B03878",
"                                              .+.@@+#+#+.                                       ",
"                                               #+##++++#+.                                      ",
"                                               +.#+$%.#.+.                                      ",
"                                              ++#.&&&%#+++                                      ",
"                                              ++#+%*+&+&+ +                                     ",
"                                             =.+%+%$$%.%.                                       ",
"                                            -=..+#&$$$%&.                                       ",
"                                            -*-=..&%&&&.;.                                      ",
"                                            -***-.%&%$&.;;.                                     ",
"                                            -**>>.%%&&.;;;.                                     ",
"                                            -**>>.%%%&..;;.                                     ",
"                                            --**>.&$%%.;.;.                                     ",
"                                           ->>>>*;.%$$&.-..-                                    ",
"                                          -*>>>>>-.&&%&.--.*-                                   ",
"                                        --*>>>>>>>..%%%.*-.**-                                  ",
"                                       -*>>>>>>>>>..&%&.*-.***-                                 ",
"                                      ->>>>>>>>>>>.;.%..**.***--                                ",
"                                     -*>>>*>>>>>>>.*.&.;**.**-*-                                ",
"                                     ->>>>>->>>>>>.>;..->*.**-*-                                ",
"                                     ->>>>>->>>>>>.>*..*>-.**-*-                                ",
"                                     ->>>>>*->>>>>.>>;.>>-.**-*-                                ",
"                                     ->>>>>*->>>>>.>>*.>>-.**-*-                                ",
"                                     ->>>>>*->>>>>.>>>.>>-.**-*-                                ",
"                                     ->>>>*-**>>>>.>>>.>>-.**-*-                                ",
"                                     ->>>>*-**>>>>.*>>.>>*.**-*-                                ",
"                                     ->>>>*-**>>>>.**>.*>>.-*-*-                                ",
"                                    ->>>>>*-***>>>.***.;**.;*-*-                                ",
"                                    ->>>>>-***>>>>.>>**.*>-.*-*-                                ",
"                                    ->>>>*-***>>>>.>>>>.>>*.*-*-                                ",
"                                    -*>>>*-***>>>>.>>>*.>>*.*-*-                                ",
"                                    -*>>>*-***>>>>.*>>.;>>*.*---                                ",
"                                   -**>>*--***>>>>.***.****.--*-                                ",
"                                   -**>>*--***>>>>.,,,,,,,,.;*--                                ",
"                                   ->>>>*--***>>>>.,,,,,,'',.*--                                ",
"                                   ->>>*- -***>>>*.'''''',,,.*--                                ",
"                                  -*>>>*- -***>>>;.',,,,,'',.*-*-                               ",
"                                  -*>>>*--****>>>..,''''',,'.--*-                               ",
"                                  -*>>>*--****>>>..,,,,,,,,-.;*--                               ",
"                                  -*>>>*--***>>>>.--*--.-***-.*--                               ",
"                                 -*>>>>- -***>>>>.-****.*****.*-*-                              ",
"                                 -*>>>>--****>>>>.*****.*****.*-*-                              ",
"                                 -*>>>>--***>>>>>.****;.;**>*.--*-                              ",
"                                -**>>>>--***>>>>>.**>;.-.;*>*.;-*-                              ",
"                                -**>>>*--**>>>>>>.**>.**-.*>*-.*-*-                             ",
"                                -**>>>*-***>>>>>>.*>>.**-.*>>*.*-*-                             ",
"                                -**>>>*-**>>>>>>>.*>*.*-*.*>>*.*-==                             ",
"                               -***>>>*-**>>>>>>>.*>-.*-*.*>>*.*-=                              ",
"                               -==**>>*-*>>>>>>>*.*>;.*-*.*>>*.*-$&                             ",
"                                  ====--*>>>>>>>*.*>.-*-*.*>>*.*-&&                             ",
"                                  &$$$&*>>>>>>>>..*>.-*-*.*>>>.*-&$&                            ",
"                                 &%$$&%&>>>>>>>>.**>.-*-*.*>>>.**-$&                            ",
"                                 &%$$&%&>>>>>>>>.*>>.-*-*.*>>**.*-%&                            ",
"                                 &%&$&&&>>>>>>>>.;...--**......;*-&                             ",
"                                  &&%&&>>>>>>>>*.*****-****>>**;*-&                             ",
"                                   &&%&>>>>>>>>*.*>***-***>>>>*;*-                              ",
"                                    -&&>>>>>>>>..*>>**-***>>>>*-*-                              ",
"                                    ->>>>>>>>>>.*>>>**-**>>>>>>-*>-                             ",
"                                   -*>>>>>>>>>>.*>>**-***>>>>>>*;>-                             ",
"                                   ->>>>>>>>>>*.*>>**-***>>>>>>*;>-                             ",
"                                  -*>>>>>>>>>>;.>>>**-***>>>>>>*;**-                            ",
"                                  ->>>>>>>>>>>.*>>>**-***>>>>>>*-;>-                            ",
"                                 ->>>>>>>>>>>*.*>>>**-***>>>>>>*-;>-                            ",
"                                 ->>>>>>>>>>>;.*>>>**-***>>>>>>>*;>-                            ",
"                                ->>>>>>>>>>>>..>>>>**-***>>>>>>>*;>>-                           ",
"                                ->>>>>>>>>>>*.*>>>>**-***>>>>>>>*;*>-                           ",
"                               ->>>>>>>>>>>>;.*>>>>**-***>>>>>>>*-;>-                           ",
"                               ->>>>>>>>>>>>..*>>>>**-***>>>>>>>*-;>-                           ",
"                              ->>>>>>>>>>>>*.*>>>>**-*****>>>>>>*-;*>-                          ",
"                              ->>>>>>>>>>>>;.*>>>>**-*****>>>>>>**;.>-                          ",
"                             ->>>>>>>>>>>>>..*>>>>**-*****>>>>>>**;.>-                          ",
"                             ->>>>>>>>>>>>*.*>>>>>**-*****>>*>>>>*-;>-                          ",
"                            ->>>>>*>>>>>>>;.*>>>>>**-*****>>**>>>*-;>*-                         ",
"                            ->>>>>*>>>>>>*..*>*>>***-*****>>**>>>*-;**-                         ",
"                           ->>>>>>*>>>>>>;.*>>*>>**-*****->>**>>>*-;.>-                         ",
"                           ->>>>>*>>>>>>>..*>>*>>**-*****->>*->>>*-;.>-                         ",
"                          ->>>>>>*>>>>>>*.**>*->>**-*****->>*->>>*-;;>*-                        ",
"                          ->>>>>**>>>>>>;.*>>*->***-*-***-*>*->>>**-;>*-                        ",
"                          *>>>>>**>>>>>*..*>*-*>***-*-***-*>*->>>**-;*>-                        ",
"                         ->>>>>>**>>>>>;.**>*->>-**-*-***-*>*->>>**-;*>-                        ",
"                         ->>>>>**>>>>>>..**>*->>-**-*-***-*>*-*>>**-;.**-                       ",
"                        -*>>>>>**>>>>>*.**>**->>-**-*-***-*>*-*>>**-;;*>-                       ",
"                        ->>>>>>**>>>>>=.-*>**->>-*-**-**-**>*-*>>**-;;*>-                       ",
"                        ->>>>>***>>>>*.*-*>*-*>*-*-**-**-**>*-*>>***-;*>-                       ",
"                       -*>>>>>***>>>>=.-****-*>*-*-**-**-****-*>>***-;*>*-                      ",
"                       ->>>>>****>>>*.*-*>**-*>*-*-**-**-*****->>***-;*>>-                      ",
"                      -*>>>>>****>>>;.*-*>**-*>-**-**-**-*****-*>***-;;*>-                      ",
"                      ->>*---****>>*.*-**>**->>-**-**-**-*****-*>***-.;*>-                      ",
"                     -*>-=====-**>>;.*-*>**-*>>-**-*-***-*****-*>***- ;*-                       ",
"                     ....====-*----..*-*>**-*>>-**-*-**-******-*>***- .-                        ",
"                          ..-*****-**--****-*>*-**-*-**-******-******-                          ",
"                            -*****-**-*****-*>*-**-*-**-******-******-                          ",
"                            ;;;;**-**-*****-*>*-**;*-**-******-****;;;                          ",
"                                ;;;**-****-***-***;;;**-**;;;;;;;;;                             ",
"                                   ;;;;;;;;***-*;;;  ;;;;; .===-                                ",
"                                    .=-=.  ;;;;;           .-===-.                              ",
"                                    .=-;.                  .=-=;;---.                           "};
