/* XPM */
static char * player_xpm[] = {
"96 96 22 1",
" 	c #080800",
".	c #080808",
"+	c #282020",
"@	c #A88068",
"#	c #503838",
"$	c #F8D0C0",
"%	c #D0A080",
"&	c #986050",
"*	c #98A0A8",
"=	c #000818",
"-	c #302010",
";	c #404050",
">	c #282830",
",	c #F0F0F0",
"'	c #382818",
")	c #483008",
"!	c #584018",
"~	c #685020",
"{	c #581040",
"]	c #B03878",
"^	c #806838",
"/	c #907840",
"                                              .+.@@+#+#+.                                       ",
"                                               #+##++++#+.                                      ",
"                                               +.#+$%.#.+.                                      ",
"                                              ++#.&&&%#+++                                      ",
"                                              ++#+%*+&+&+ +                                     ",
"                                             =.+%+%$$%.%.                                       ",
"--------------------------------------------;=..+#&$$$%&.---------------------------------------",
"--------------------------------------------;*;=..&%&&&.>.--------------------------------------",
"--------------------------------------------;***;.%&%$&.>>.-------------------------------------",
"--------------------------------------------;**,,.%%&&.>>>.-------------------------------------",
"--------------------------------------------;**,,.%%%&..>>.-------------------------------------",
"--------------------------------------------;;**,.&$%%.>.>.-------------------------------------",
"''''''''''''''''''''''''''''''''''''''''''';,,,,*>.%$$&.;..;''''''''''''''''''''''''''''''''''''",
"'''''''''''''''''''''''''''''''''''''''''';*,,,,,;.&&%&.;;.*;'''''''''''''''''''''''''''''''''''",
"'''''''''''''''''''''''''''''''''''''''';;*,,,,,,,..%%%.*;.**;''''''''''''''''''''''''''''''''''",
"''')))''')))''')))''')))''')))''')))''';*,,,,,,,,,..&%&.*;.***;)))''')))''')))''')))''')))''')))",
"''')))''')))''')))''')))''')))''')))'';,,,,,,,,,,,.>.%..**.***;;))''')))''')))''')))''')))''')))",
"''')))''')))''')))''')))''')))''')))';*,,,*,,,,,,,.*.&.>**.**;*;))''')))''')))''')))''')))''')))",
")))))))))))))))))))))))))))))))))))));,,,,,;,,,,,,.,>..;,*.**;*;))))))))))))))))))))))))))))))))",
")))))))))))))))))))))))))))))))))))));,,,,,;,,,,,,.,*..*,;.**;*;))))))))))))))))))))))))))))))))",
")))))))))))))))))))))))))))))))))))));,,,,,*;,,,,,.,,>.,,;.**;*;))))))))))))))))))))))))))))))))",
"!!!!!!!!!!!!!!!!!!!!!!!!!!!!!!!!!!!!!;,,,,,*;,,,,,.,,*.,,;.**;*;!!!!!!!!!!!!!!!!!!!!!!!!!!!!!!!!",
"!!!!!!!!!!!!!!!!!!!!!!!!!!!!!!!!!!!!!;,,,,,*;,,,,,.,,,.,,;.**;*;!!!!!!!!!!!!!!!!!!!!!!!!!!!!!!!!",
"!!!!!!!!!!!!!!!!!!!!!!!!!!!!!!!!!!!!!;,,,,*;**,,,,.,,,.,,;.**;*;!!!!!!!!!!!!!!!!!!!!!!!!!!!!!!!!",
"-------------------------------------;,,,,*;**,,,,.*,,.,,*.**;*;--------------------------------",
"-------------------------------------;,,,,*;**,,,,.**,.*,,.;*;*;--------------------------------",
"------------------------------------;,,,,,*;***,,,.***.>**.>*;*;--------------------------------",
"!!!!!!!!!!!!!!!!!!!!!!!!!!!!!!!!!!!!;,,,,,;***,,,,.,,**.*,;.*;*;!!!!!!!!!!!!!!!!!!!!!!!!!!!!!!!!",
"!!!!!!!!!!!!!!!!!!!!!!!!!!!!!!!!!!!!;,,,,*;***,,,,.,,,,.,,*.*;*;!!!!!!!!!!!!!!!!!!!!!!!!!!!!!!!!",
"!!!!!!!!!!!!!!!!!!!!!!!!!!!!!!!!!!!!;*,,,*;***,,,,.,,,*.,,*.*;*;!!!!!!!!!!!!!!!!!!!!!!!!!!!!!!!!",
"!!!~~~!!!~~~!!!~~~!!!~~~!!!~~~!!!~~~;*,,,*;***,,,,.*,,.>,,*.*;;;~~!!!~~~!!!~~~!!!~~~!!!~~~!!!~~~",
"!!!~~~!!!~~~!!!~~~!!!~~~!!!~~~!!!~~;**,,*;;***,,,,.***.****.;;*;~~!!!~~~!!!~~~!!!~~~!!!~~~!!!~~~",
"!!!~~~!!!~~~!!!~~~!!!~~~!!!~~~!!!~~;**,,*;;***,,,,.{{{{{{{{.>*;;~~!!!~~~!!!~~~!!!~~~!!!~~~!!!~~~",
"~~~!!!~~~!!!~~~!!!~~~!!!~~~!!!~~~!!;,,,,*;;***,,,,.{{{{{{]]{.*;;!!~~~!!!~~~!!!~~~!!!~~~!!!~~~!!!",
"~~~!!!~~~!!!~~~!!!~~~!!!~~~!!!~~~!!;,,,*;!;***,,,*.]]]]]]{{{.*;;!!~~~!!!~~~!!!~~~!!!~~~!!!~~~!!!",
"~~~!!!~~~!!!~~~!!!~~~!!!~~~!!!~~~!;*,,,*;!;***,,,>.]{{{{{]]{.*;*;!~~~!!!~~~!!!~~~!!!~~~!!!~~~!!!",
"~~~~~~~~~~~~~~~~~~~~~~~~~~~~~~~~~~;*,,,*;;****,,,..{]]]]]{{].;;*;~~~~~~~~~~~~~~~~~~~~~~~~~~~~~~~",
"~~~~~~~~~~~~~~~~~~~~~~~~~~~~~~~~~~;*,,,*;;****,,,..{{{{{{{{;.>*;;~~~~~~~~~~~~~~~~~~~~~~~~~~~~~~~",
"~~~~~~~~~~~~~~~~~~~~~~~~~~~~~~~~~~;*,,,*;;***,,,,.;;*;;.;***;.*;;~~~~~~~~~~~~~~~~~~~~~~~~~~~~~~~",
"---------------------------------;*,,,,;-;***,,,,.;****.*****.*;*;------------------------------",
"---------------------------------;*,,,,;;****,,,,.*****.*****.*;*;------------------------------",
"---------------------------------;*,,,,;;***,,,,,.****>.>**,*.;;*;------------------------------",
"^^^^^^^^^^^^^^^^^^^^^^^^^^^^^^^^;**,,,,;;***,,,,,.**,>.;.>*,*.>;*;^^^^^^^^^^^^^^^^^^^^^^^^^^^^^^",
"^^^^^^^^^^^^^^^^^^^^^^^^^^^^^^^^;**,,,*;;**,,,,,,.**,.**;.*,*;.*;*;^^^^^^^^^^^^^^^^^^^^^^^^^^^^^",
"^^^^^^^^^^^^^^^^^^^^^^^^^^^^^^^^;**,,,*;***,,,,,,.*,,.**;.*,,*.*;*;^^^^^^^^^^^^^^^^^^^^^^^^^^^^^",
"~~~^^^~~~^^^~~~^^^~~~^^^~~~^^^~~;**,,,*;**,,,,,,,.*,*.*;*.*,,*.*;==~~^^^~~~^^^~~~^^^~~~^^^~~~^^^",
"~~~^^^~~~^^^~~~^^^~~~^^^~~~^^^~;***,,,*;**,,,,,,,.*,;.*;*.*,,*.*;=~~~^^^~~~^^^~~~^^^~~~^^^~~~^^^",
"~~~^^^~~~^^^~~~^^^~~~^^^~~~^^^~;==**,,*;*,,,,,,,*.*,>.*;*.*,,*.*;$&~~^^^~~~^^^~~~^^^~~~^^^~~~^^^",
"^^^^^^^^^^^^^^^^^^^^^^^^^^^^^^^^^^====;;*,,,,,,,*.*,.;*;*.*,,*.*;&&^^^^^^^^^^^^^^^^^^^^^^^^^^^^^",
"^^^^^^^^^^^^^^^^^^^^^^^^^^^^^^^^^^&$$$&*,,,,,,,,..*,.;*;*.*,,,.*;&$&^^^^^^^^^^^^^^^^^^^^^^^^^^^^",
"^^^^^^^^^^^^^^^^^^^^^^^^^^^^^^^^^&%$$&%&,,,,,,,,.**,.;*;*.*,,,.**;$&^^^^^^^^^^^^^^^^^^^^^^^^^^^^",
"/////////////////////////////////&%$$&%&,,,,,,,,.*,,.;*;*.*,,**.*;%&////////////////////////////",
"/////////////////////////////////&%&$&&&,,,,,,,,.>...;;**......>*;&/////////////////////////////",
"//////////////////////////////////&&%&&,,,,,,,,*.*****;****,,**>*;&/////////////////////////////",
"///////////////////////////////////&&%&,,,,,,,,*.*,***;***,,,,*>*;//////////////////////////////",
"////////////////////////////////////;&&,,,,,,,,..*,,**;***,,,,*;*;//////////////////////////////",
"////////////////////////////////////;,,,,,,,,,,.*,,,**;**,,,,,,;*,;/////////////////////////////",
"-----------------------------------;*,,,,,,,,,,.*,,**;***,,,,,,*>,;-----------------------------",
"-----------------------------------;,,,,,,,,,,*.*,,**;***,,,,,,*>,;-----------------------------",
"----------------------------------;*,,,,,,,,,,>.,,,**;***,,,,,,*>**;----------------------------",
"//////////////////////////////////;,,,,,,,,,,,.*,,,**;***,,,,,,*;>,;////////////////////////////",
"/////////////////////////////////;,,,,,,,,,,,*.*,,,**;***,,,,,,*;>,;////////////////////////////",
"/////////////////////////////////;,,,,,,,,,,,>.*,,,**;***,,,,,,,*>,;////////////////////////////",
"^^^///^^^///^^^///^^^///^^^///^^;,,,,,,,,,,,,..,,,,**;***,,,,,,,*>,,;///^^^~~~^^^///^^^///^^^///",
"^^^///^^^///^^^///^^^///^^^///^^;,,,,,,,,,,,*.*,,,,**;***,,,,,,,*>*,;///^^^~~~^^^///^^^///^^^///",
"^^^///^^^///^^^///^^^///^^^///^;,,,,,,,,,,,,>.*,,,,**;***,,,,,,,*;>,;///^^^~~~^^^///^^^///^^^///",
"///////////////////////////////;,,,,,,,,,,,,..*,,,,**;***,,,,,,,*;>,;////////////////////////~~~",
"//////////////////////////////;,,,,,,,,,,,,*.*,,,,**;*****,,,,,,*;>*,;///////////////////////~~~",
"//////////////////////////////;,,,,,,,,,,,,>.*,,,,**;*****,,,,,,**>.,;///////////////////////~~~",
"/////////////////////////////;,,,,,,,,,,,,,..*,,,,**;*****,,,,,,**>.,;///////////^^^~~~/////////",
"/////////////////////////////;,,,,,,,,,,,,*.*,,,,,**;*****,,*,,,,*;>,;///////////^^^~~~/////////",
"////////////////////////////;,,,,,*,,,,,,,>.*,,,,,**;*****,,**,,,*;>,*;//////////^^^~~~/////////",
"////////////////////////////;,,,,,*,,,,,,*..*,*,,***;*****,,**,,,*;>**;/////////////~~~^^^//////",
"///////////////////////////;,,,,,,*,,,,,,>.*,,*,,**;*****;,,**,,,*;>.,;/////////////~~~^^^//////",
"///////////////////////////;,,,,,*,,,,,,,..*,,*,,**;*****;,,*;,,,*;>.,;/////////////~~~^^^//////",
"^^^^^^^^^^^^^^^^^^^^^^^^^^;,,,,,,*,,,,,,*.**,*;,,**;*****;,,*;,,,*;>>,*;^^^^^^^^^^^^^^^^^^^^^^^^",
"^^^^^^^^^^^^^^^^^^^^^^^^^^;,,,,,**,,,,,,>.*,,*;,***;*;***;*,*;,,,**;>,*;^^^^^^^^^^^^^^^^^^^^^^^^",
"^^^^^^^^^^^^^^^^^^^^^^^^^^*,,,,,**,,,,,*..*,*;*,***;*;***;*,*;,,,**;>*,;^^^^^^^^^^^^^^^^^^^^^^^^",
"-------------------------;,,,,,,**,,,,,>.**,*;,,;**;*;***;*,*;,,,**;>*,;------------------------",
"-------------------------;,,,,,**,,,,,,..**,*;,,;**;*;***;*,*;*,,**;>.**;-----------------------",
"------------------------;*,,,,,**,,,,,*.**,**;,,;**;*;***;*,*;*,,**;>>*,;-----------------------",
"////////////////////////;,,,,,,**,,,,,=.;*,**;,,;*;**;**;**,*;*,,**;>>*,;///////////////////////",
"////////////////////////;,,,,,***,,,,*.*;*,*;*,*;*;**;**;**,*;*,,***;>*,;///////////////////////",
"///////////////////////;*,,,,,***,,,,=.;****;*,*;*;**;**;****;*,,***;>*,*;//////////////////////",
"^^^^^^^^^^^^^^^^^^^^^^^;,,,,,****,,,*.*;*,**;*,*;*;**;**;*****;,,***;>*,,;^^^^^^^^^^^^^^^^^^^^^^",
"^^^^^^^^^^^^^^^^^^^^^^;*,,,,,****,,,>.*;*,**;*,;**;**;**;*****;*,***;>>*,;^^^^^^^^^^^^^^^^^^^^^^",
"^^^^^^^^^^^^^^^^^^^^^^;,,*;;;****,,*.*;**,**;,,;**;**;**;*****;*,***;.>*,;^^^^^^^^^^^^^^^^^^^^^^",
"^^^^^^^^^^^^^^^^^^^^^;*,;=====;**,,>.*;*,**;*,,;**;*;***;*****;*,***;^>*;^^^^^^^^^^^^^^^^^^^^^^^",
"^^^^^^^^^^^^^^^^^^^^^....====;*;;;;..*;*,**;*,,;**;*;**;******;*,***;^.;^^^^^^^^^^^^^^^^^^^^^^^^",
"^^^^^^^^^^^^^^^^^^^^^^^^^^..;*****;**;;****;*,*;**;*;**;******;******;^^^^^^^^^^^^^^^^^^^^^^^^^^",
"^^^^^^^^^^^^^^^^^^^^^^^^^^^^;*****;**;*****;*,*;**;*;**;******;******;^^^^^^^^^^^^^^^^^^^^^^^^^^",
"^^^^^^^^^^^^^^^^^^^^^^^^^^^^>>>>**;**;*****;*,*;**>*;**;******;****>>>^^^^^^^^^^^^^^^^^^^^^^^^^^",
"^^^^^^^^^^^^^^^^^^^^^^^^^^^^^^^^>>>**;****;***;***>>>**;**>>>>>>>>>^^^^^^^^^^^^^^^^^^^^^^^^^^^^^",
"~~~^^^~~~^^^~~~^^^~~~^^^~~~^^^~~~^^>>>>>>>>***;*>>>^^>>>>>^.===;^^~~~^^^~~~^^^~~~^^^~~~^^^~~~^^^",
"~~~^^^~~~^^^~~~^^^~~~^^^~~~^^^~~~^^^.=;=.^~>>>>>~~~^^^~~~^^.;===;.~~~^^^~~~^^^~~~^^^~~~^^^~~~^^^",
"~~~^^^~~~^^^~~~^^^~~~^^^~~~^^^~~~^^^.=;>.^~~~^^^~~~^^^~~~^^.=;=>>;;;.^^^~~~^^^~~~^^^~~~^^^~~~^^^"};
