/* XPM */
static char *d89380dcfcca4e7894113cd2418fb152wyXiv4gI1Tep3yx7[] = {
/* columns rows colors chars-per-pixel */
"32 32 102 2 ",
"   c None",
".  c black",
"X  c #010101",
"o  c #020202",
"O  c gray1",
"+  c #040404",
"@  c #060606",
"#  c #070707",
"$  c gray3",
"%  c #090909",
"&  c #08080A",
"*  c gray4",
"=  c #0A0B0B",
"-  c #0B0B0B",
";  c #0C0C0C",
":  c gray5",
">  c #0E0E0E",
",  c gray6",
"<  c #150E0E",
"1  c #0D0D12",
"2  c #101010",
"3  c #111111",
"4  c gray7",
"5  c #131313",
"6  c #151515",
"7  c #161616",
"8  c gray9",
"9  c #181817",
"0  c #181818",
"q  c #191919",
"w  c gray10",
"e  c #1B1B1B",
"r  c gray11",
"t  c #1D1D1D",
"y  c #1C1C1E",
"u  c #1E1E1E",
"i  c gray12",
"p  c #23211F",
"a  c #1D2222",
"s  c #202020",
"d  c gray13",
"f  c #212123",
"g  c #222222",
"h  c #202026",
"j  c gray14",
"k  c #272727",
"l  c #20202A",
"z  c #23232B",
"x  c #26262B",
"c  c #282828",
"v  c gray17",
"b  c #2D2D2D",
"n  c gray18",
"m  c #282832",
"M  c #282836",
"N  c #2C2C3A",
"B  c #2F2F3E",
"V  c #2F2F3F",
"C  c gray19",
"Z  c #313131",
"A  c gray20",
"S  c gray22",
"D  c #583500",
"F  c #683E00",
"G  c #7B4A00",
"H  c #7F4E06",
"J  c #303040",
"K  c #333344",
"L  c #373749",
"P  c #39394D",
"I  c #3D3D52",
"U  c #44445B",
"Y  c #4E5151",
"T  c #4B5656",
"R  c #84510E",
"E  c #915A20",
"W  c #845858",
"Q  c #A06A6A",
"!  c #818E8E",
"~  c #969C9C",
"^  c #AC8E8E",
"/  c #BD8C8C",
"(  c #C98686",
")  c #DB928F",
"_  c #CB8F97",
"`  c #DE9494",
"'  c #DF9696",
"]  c #E09999",
"[  c #D8B3B3",
"{  c #D9B3B3",
"}  c #DDB7BB",
"|  c #EBBBBB",
" . c #C0C8C8",
".. c #C9CFCF",
"X. c #D0D5D5",
"o. c #EDC1C1",
"O. c #EFC6C6",
"+. c #F0CBCB",
"@. c #DFE1E1",
"#. c #E7E7E7",
"$. c gray91",
"%. c #FDE4E4",
/* pixels */
"                                                                ",
"                              . . . . .                         ",
"                        . . B B B B B B . .                     ",
"                  . . . K J J J J J J u - N N M - # . .         ",
"                    . z L U J m 0 L I z L J h 0 3 .             ",
"                  . - 0 J . z : - P J . z P 0 J 0 .             ",
"                  . . 3 # ^ # . D 1 # . Q . . 0                 ",
"                      . . < ( { +._ } %.o.9                     ",
"                  . u u u . - < { ] R { .                       ",
"              - 8 # u k s - . T / a a ! .                       ",
"            . 3 : c S S s u : . .  .$.$.. u .                   ",
"            . s s c s s 8 8 u x .  .$.$.. - .                   ",
"          . s s s s s 3 . u 0 s . $.$.$. .. s .                 ",
"        . s s s s u .   . s 0 s . $.$.$.#.# . .                 ",
"        . S S s s .     # u 0 0 . @.@. . . .. 3                 ",
"        . s n s s .   : s 0 0 . $.$.X.X.X.X.Y . :               ",
"          . s s W G 3 s 0 0 . $.$.$.$.$.X.X.X.. . .             ",
"              E O.| G 0 0 . ~ ......$.$.$.$.@. .~ .             ",
"            . p H ` ` ) 3 3 3 3 . # # # # # # # # .             ",
"          . 0 s s u F . k k s u 3 : . . . 3 3 3 k s .           ",
"        . 0 s s 0 0 . c S A 0 3 - - 0 0 . 3 3 s S c .           ",
"      . : s s u 0 . n S c s 3 # : 0 0 0 . 3 3 s S S .           ",
"    . 3 s s s 0 # 8 S S s 3 # 3 0 0 0 0 . 3 3 s S k . .         ",
"  . 8 u s s 0 0 . S S s 3 . . 0 0 0 0 0 . 3 3 s S s . .         ",
"  . 0 s s 0 0 . s S s 3 : . 8 8 8 8 8 8 . 3 3 s s u . .         ",
"  . 3 0 0 0 . s S A 0 - .               . 3 3 s s . . .         ",
"      . . . : S S s 3 .               . 3 3 0 s s . .           ",
"        . 8 S S 8 3 .                 . 3 3 s s 3 .             ",
"      . : s 3 3 3 .                   . 3 3 3 3 u u : .         ",
"    . . . . u u : .                   . : : . . . 3 3 . . .     ",
". 3 u A A u 3 3 .                     . : : . : : : : : : : .   ",
". . . . . . . .                                                 "
};
