/* XPM */
static char * test_xpm[] = {
"96 96 62 1",
" 	c #4AAECE",
".	c #4AAEC6",
"+	c #42A6BD",
"@	c #429EBD",
"#	c #42A6C6",
"$	c #4AA6BD",
"%	c #52AEC6",
"&	c #4AA6C6",
"*	c #52B6CE",
"=	c #5ABECE",
"-	c #52B6C6",
";	c #52AECE",
">	c #63BED6",
",	c #5ABED6",
"'	c #5AB6CE",
")	c #4AB6CE",
"!	c #429EB5",
"~	c #52B6D6",
"{	c #4AB6C6",
"]	c #52BECE",
"^	c #42A6B5",
"/	c #6BC7CE",
"(	c #63C7D6",
"_	c #5AB6D6",
":	c #52BED6",
"<	c #63BECE",
"[	c #4A9EBD",
"}	c #4AAEBD",
"|	c #6BC7D6",
"1	c #42AEC6",
"2	c #63C7CE",
"3	c #5AC7D6",
"4	c #5AB6C6",
"5	c #52AEBD",
"6	c #4296B5",
"7	c #52A6C6",
"8	c #4AA6B5",
"9	c #429EC6",
"0	c #5ABEC6",
"a	c #42AECE",
"b	c #6BCFD6",
"c	c #4AB6D6",
"d	c #42B6CE",
"e	c #73CFD6",
"f	c #63CFD6",
"g	c #4AAED6",
"h	c #5AB6BD",
"i	c #73C7D6",
"j	c #7BC7CE",
"k	c #73C7C6",
"l	c #63BEC6",
"m	c #4AA6CE",
"n	c #52B6B5",
"o	c #6BC7C6",
"p	c #5AAEB5",
"q	c #52A6BD",
"r	c #5AAEC6",
"s	c #5ABEBD",
"t	c #52A6CE",
"u	c #4A9EB5",
"v	c #429EAD",
"w	c #4296AD",
" .+@+##+@@+++@$$.%...   .+$$&&&$&&..&+#..... .%*..$.......=.$$$.&&..-...%..;  ..$. .&&+$$&*>;.*.",
"&..$+++++@++@+&-,,=='*)..+..&$&.&+#&... ...  ...  . &...  ,,$...&&&.*   ....;;**-**;...&#..,,,,+",
"&&. .#@$$!$++*,,>,*%.....**.&+&....  ....*~).... . .&   * *,.$&.&& -.......&& *,*=** &&...;.++$.",
"&.#&*.@+$$!.>>='*$+@+..{],,,'~*..**.....** &&.& *.  )*  ....*.&$#. *.&...* ..**=*-.).#.**~.++++^",
".&#&*'*&$+./('*-...**%-*****,****......*~.&.. #)_** ~)  .. +&,** ....&.....&.*,=.++**):,,.!&++$!",
" ..&@&**_,>(**.-_=,*..**).**.****)....*)...&...~~*       ...&$,<*&...$....&&-*=*%$& **%$@[$$++++",
"..#..&+$*%*>-',(_...%===,:***).*.*...**.......*,~  )))) )****... **.-}..  **'=>*.&.  ;%$@$$@@@++",
"#..#+$.*$!$(=,(-[&.%-***,,:*:.**{*..*)......;.:,*..)~~).... ******,_>*****..*=,-$&.;..&!@+++++++",
"++++.*-^+.!.(|(}+ &$$$+&&&&..*~***){*.)......:,..) )~ . ...&&.+$%',,>-.*.$..*=,-.%;&&  +.+@@+@@@",
"#1#*2(*}-}}',.^^##@+&$&..++...#*(*)).....{}}=,{{{)~*  .) .   **''-..%**...-*,=*....++ *& *...$++",
"##.~,,~* .~~++!++++$$&&&&....#.((=.{-*********{{**,*.  ** .)~**='-**.-{..*],((.}}$+$+..++@+&&.&&",
"&&#####++.,.!@$@&&&$+$&&. ....,(,*{*.....*=<,],3,,:...*.... *.-4=<<'%{.* ***=,*}.&&$+. ++.*)...&",
"+####&....: +@+$++&&&........ :~.**.. .)**=,{*3(2,,**-*...  &**4==>*%... **..-,-.$$$+......+@+&.",
"###&..##&+*>,;++$.*'='-%.##. ~:~)***:,:))....+.-=<,-%----**)._'4<<>%... )~*****=-$&+&&.+).++++!+",
"&++&&&&..#+. ,>(=(|2=-}++.+.~.*****],,,==*.##.&+$'=-...*=*. *_'44<<%&.))&.~***%*'.&+++...++.**;&",
"+&&+++++++&+.*~*5-4.+$+$&!.,**~****.++++##......*22>-%%==*.-*-'==,==..  #._)****~~; &&+$$.*,~_,~",
"@@++$&&&**,~*&+!##@@&+$^+),,),:~*)**:]***.......%2//,,,<=-***'--,=*** ).#.* .*** ;;;**&.%;,,*.*'",
"(_**_***;*..&...#####$+%((***..+#...**,,:**** * ..'=-*,=*,****..*''***..*=,,*..*.&. **&&&$..+#11",
"_%$@!!66!6!@+++&  & **>(,.+++.##...&&. ))))******-.$!-*..)*..*--%.--******{==**{..&&..&&&$...* 1",
"!!@$&&&&&$@++++&#   *',*$++......... ....)*)     ...%,'..  ...-'-...)--*******]*-..&;.$$@$&;*.11",
"!![[@@@@$$$@@@$&--}.%%=-$..+.....  ......  .....&.***...&.&.%--'****===(,=>',*{**.-.;.$$$$.;*.11",
"$$$@!![[@$$$@@$&-%}.4=%$%.&..&&.#&.......#&&.#. &)_.&.&&&...$%''''**--',==='==44--*.%..+++&...+@",
"!+$$[$$$$$&&$$$[#&%%*%***.....&....&.1  ..  .. ..),;&....&&&.''}$%.*--%*-4=*'=4--**;*..&&&*' &#.",
"@@@@@[[[&&$$&%$@@&&+^$$$....&.&&&&.&.11 )****))).)*...&&.&&&%*%..;   .%%.%*'*'**''-%%&+$$.;* ***",
"$+@@[[$&$$[[$7%&$@$$&&$+&.*.&&&.&&&&.......***.{.**...&.$&&%%%%...&&#$&.&.%%%'**'.$&&.&.%..&+#&#",
"+++$[@[$[$$[!$%*$@&$&$$&$.*.+...;;***-----.-%---,*. ;.....%%%%..&$+$&&&.&.%%%.;.&$$&&&&%%&&&+++@",
"++@@+$$@@&&@+$;&$$@$&$&&$&.*..........-=3,2222>***. ..&.%%..$$$$&&&&&&&&&&...&&&$$%&&&&&$%;.@@##",
"@@&&$$$$$&@$&.$+$$$&$&&&+#.;*.&$$........-*-'-*-**.....&...&&&&&&..&$++#$$$$$&&$;..&&$@!@@&..&#+",
"$@@@$&$@@$$&+$!@!@$$++&&&&&&&........)) **'.}}****......&$&&$&&&....%%&&$$$+&$.%.&$+@@+@++@@& &&",
"$&&$@@@@@@&@$&+!$$$$$&&&&&.&&....&&.-**--%}8$$$.***-.....&&++++.%.&$$&...... ..&&$&&&+$$$++@@&%.",
"&&%%&$$$$@$@$&%&!+$$$&&&...&&&&..**--*=,=(***-..***.&....... ; .%%%..&&+$...&#++$$$$$$$$$$+@@&&#",
"&$$$.%.&$.%%$$$*%%.... ...&&&&.%%* ... *~* *''<>,...&%.&&&&.%-4%$&&&........##&&&++++&&&&&++@&&@",
"@$$+@@+&$$$$$$&%.&&&&&&...&&&...%.+..#.)* &..4.*'*..;...&&$&$@+&.$$$++++++&&.   &+++++++&&&&++++",
"$$+$$@@+$$$+$$..$$&.&&&.&&&&&..&..#+++#&**$$-'++**).. .&&&&$+$&$$&$$+++&++++##&&&&&&&&&#&#+&&&$+",
"$$$$$$^^^+!$&$%..&&&&...&&&.&.&+&.....  ,=-*>*%'*.....;.&&+++$+$$.++++++++@########@@#++++++ .+&",
"$%%$$%%}$$$$$%,*.&&......&&.&&&$.$.%%-*.-*.,**. .)**  .&&$+$++$$.@@@@+++$@@###&&#99@9###+##&.*..",
"$&&&++&&&..%55%*..#...&...&&&&....%..-' .**.*.+&... *.&&++++++@&&@@@@@@+$@@99999#########&#&&*.&",
"[+++&&+@@@@++*>'...&. ...&&&&&.****=,(2('*'%-.&.&&..#+..&+@@@++$&$+++&#&&&[&.)*****)............",
"+++@@$&$$.....*%.)... ..       ),,,=*'==''==-.@&&  &&&.$+$$++$&$$&&&&+@&&&****~~**:*****.&++++.*",
".**...*,,***44'.&.#..  .. ) ))) )*,,=%-''=<'--&.&  ##$..&$$$$$$$++$##&&++;,,,~***...)******..+&.",
"'444*....; .*;;.** ..   )  ))..)*){'>,**==<--.+&.&.&&+$&&$$$$++$@+$#+&&+.*_*;.&++@@++@@+$&.**...",
"4}$8^+$&&##$$$... ***)....)))*).))..~,,,=--''*+... #&&$$$$$@@@@@@+++&++;;..&$+++++++++@@@@@++$&&",
"#@&.  .++$}..&#&.##..:].....)**..** ..*>('4=(,$+.. #&&$@+$$@@@@@@@+@+&.;&+++++++++$+++$+$$&@$@@.",
"&&&&&&..$$$#&.&&.1.....**)..)**{.{)****'=-'*((*.&#&#&++@@@$@@@@@@+++#. &++@$+++@@@@+++@@[$$[&@$&",
"$&.&.%.....&&#&.&##1 ***=*{{.{):)..****,4%-',>{**) #+@+@@@$@@@@@@+&&*.++&@@@@@$$$[[@@@+$$[[[@$&$",
"&$$%%%%%--% .&&&1.# *::****)))){]]]-.-*,*>>.++.& ** .&&$@&@+!@+$&+&;&&+++@@@@@@@[[[@@@@@@@@@$&$+",
"...;...&&&...{.... .)*~~*****]]*.*(33,((>,%$&...#..&&&&&++!@&@@@@  .&#++++@@@@@[@@@+@@@@@[[$[@@+",
"&$.%....&&&1#1.))*~****::::::,,,*((,=*(,*.#&.&#.. )&&+@+++@@@!&.&..&+++@+$+@@@@@@@@@@@@@@@@@@@@&",
"+&&.&$&.......***..  .)**:::::],3(,---(=$... .. .#+&..##++$$*>;&*..++++@@+@@@@@@@@@@@@@@@@@[$&&@",
"$..$..&++&.)***).. . ))****],,]=((-.-,(-....   .*****;...&#.._,,,+!++++@@+@@@@@@@@@++++++++&&+@@",
"*%&+&... *~**).. )) )*)))***:]],((.-'(=}..#..#1 *,,,~~ &&.&. .++$.&++++@@+@@@@@@@@@@++++@@@@@@+&",
",,*,*) ***....     ) ).{)***]*=(,=.%=(=....  1.:],=-. .#.**~.++++!$++++@@+@@@++@@@@@@@++@@@@+#&.",
")*,*****.....*;.. *).***)*****,|,'**,(*+...11.),(,-++**):,,.!&++$!.$+++++&+@@+@@@+++++++++@   .&",
"**{******........  ) *)))*]]*3|==-.-(>48  1...*,>*%+# ~*.+@@$$+++++.+@&&@@[@@@@@$+@9##9@#&  ....",
"{{**{*{,-{...-.. . )))*****,((=0,--=('=8a 1...**,-$+.  ;;$@$$@@@+++&&$@@$&[&@@[&$@$&99&   ).....",
"::,{::*,-.*.....  )   )***3,,=-(,*,,>=b.# ....*,3-$&.*..&!@++@@++++!+&&+@@@@@@+#@+&### .&.)...&.",
"...*::,**.{***{*))).)))~~:]--]=(-*(((>b-#.1.1.],3-.-;&&;;+.+@@@@@@@$@@$&&$@@@@@@+++#&&#@#& ....&",
"+....:(*{*{...{**)) )))):*.{-*,* ...+.-=) ..*,3,*...&@@;*& *...$+++@@@@+&&&##+@###@#&##+#......&",
"&..+.(|*.-...)))))*)....:,]:*,(*......+.*).*,,((}$$$+++..++++&....&++++@@@+&##&#@#.  ..#+#......",
"....:(,]..}. .....)))*).){..)**+.  ..).....)**,(*$.$&++.)++.))...&+*.@++++++#..##1c)  .1+#...&&.",
"....,,.,=**..#1...).)   ...):)!+&#& ~ .+.1.**{-*3..$+++. ....+@+&&$!.;&@@++@++#1)c))).#.  ...&$&",
"#. ~::*****,:*)**...++...))*3,*.&.. ~#..1 #~~****,.+&#&&.+).++++!+.+++**+@@+@#.##))....)).&&&...",
"#.: **{{*,3|(||_.&@&#&& . )*{,(,&  ~) ..  #.~****~,.&+++...+1.*~*.++.+&*~.+ .+@+#1c)*.+#.....&&$",
".,*~***,].^@6@+@+&+&##&.) ..{%*,$. *..#1#.#.,~*,**,,* &&+++.,,,,,,,.+;_*,>>,, +#+#~*))*~*..$++@@",
",,)~:,:**=3,*--...$+++++.)).{*,(*.* ) .. ##.~).*** ;*~*_..;*((*)~,(,.;*,~ >,(,:,~~(,:**.+!@@@@++",
"***..#....**=,,=,,=''**++.~,.-(|(%......#1~(,,*..*..;*~_.&&$;..111),+++@+@6+$+$&&#&*~*&+&&+&&&&.",
"+++.#+#..&&+.-**===3(((*).*,=-4(b=...).).)~,*((,*{).&.;;&&&$.;**)11**.!+$@&+@++@@@@@++.;__.&&&&&",
"+..#&..... }..{*=,,,=,,*  &.,|(2b2}....))**]{*,*3]*-..*%$$@[&;* 1d)**&+$++$@@$+@@+&$!@&.&$@@++@+",
".+&#&.   .&..1..)**%...** &.}=eeee(=3,(((f(((*3,*,*-***.$$$$.**.11d._.+&@!++$@@&$@@@&**&@+@@++@+",
"$.##..##...1....#+.+$..*;; g {hijkii||00((222=((l<='***..++@&.).++..,@+$@+@###&#@##. ;.$@$&+++##",
"..&.&....  #  . ~*.}...**%mg .noopqr'>0s=,022=((0=='__,.....,(~.#1)(>.&++###@#&#&. ..&$$&&$&&&&&",
".&#&.......  ),,,,,=,(,**.  ..-(=q&t& **,,*'===(,,,,,'*&+&&*,,~,,,,,..&@#+##+##@# ;.&+@$&&&&&&&#",
"...&...&&&..{*,]*=(b((=*-** **=>%$&;  #+}-.%''=,=',%$.. .~,,*... .1$+;.@#@@###@@&  &&&++$&&&&$+#",
"*.+&&..&&&.+.*]--=(b(='-*{{*====--..&&...* *=='''%.&..& ;,,;.&++++++&;&+++#@++@#;;&#&&&+&&&&&&&&",
"  .&&#&&..&1+{,,*=b((('--{.*'==***''%&.&....%-%}&&&.**;;.;&,,*+@+#1&.&@#+##+@@+.* @#&&&&&&&&&&&&",
"& *.&&&...&.1.*,==(=(=-.$...%%%.-*.,(%$^+#&+++$$$$***;.&@@@!.__*&++ .&@&+@@+@+...$!&&&&&&&9####&",
"++&........   &.**%%',,'**;;***-*-==2,>>..+$$++&;*;.+++++++@!@;,~ . @+@#@@&@@.*.++$#&&&9@######&",
"&&&...&&&&&    .++$$^.**;** **...=b=}8$%~,~,,,,: $.+#&++++@@+@!;|*#@@##+##@& *$&+&+$&&&@@&@#&#++",
"&&&&&...&&& #.. .  # #+...&&.&*,3(bee('%.+.*,~..$+.###++++@6@@!._#@@@@+@@+&**&+@&$&@@&$+&&&#@#&&",
"#&&&&&&.     ~*.. #.#....$.%.*,*.8!54=,>>,((3~.++..&###+++@@@$&.;@++#+@@@+..*.$@&++$$.$&&@&&##&#",
"++++$&&.&....*>..  )*.*...**& .+!!8uv!!++#+.):,~*).#######&&++&..@&@#@@+.. >>,+@+&+!!@@++@&###++",
"+&&$+&&&++++$.|*..  . &*..$...*_,%$uu$$++&++@++#.*)     .&&&@+$&$@++&&._>>,,~;+$&..%%,(,*.@+#.&#",
"++&&++&..++}-*,}$&+##@#*(...&++*,%$$$$$++@+++++@++@@++##++++$&&&@++#++.**..&&$.. .~||((_*, +###+",
"&&&$&&+++..'''%^+&&.#&~({$.&... &@[[[u@$#+[@@$&&@@+@@+++++++@&&+!@@&+&.&@!!@+!+@++ }}}$++*~##++#",
"&&&+..&+.*,-'(}$++&. *_....$.&+&+[[!![@6!@@$$[@@@@#++++#&&$&@+@+!+++#..+!++!+&+ ; &8}%+!++*,~ . ",
"#+&....*(((|be8$}..&***''>(,*-.}++$...***,*,,,,,,,,,* &&&&&+@&&&@@@!.&@!@@@@&;%$@@@.;&@+$$..(e**",
"..& ..*(bb(((-!$$..*..'4.-}.-]3((,*,_*****%%{...}}+&.*; &&&++#+&@@&%.+++!@$&&&@@@[7#&#@&$++!*>..",
"......+.*,,'|%-..& .,_ !..}}..}.*(**;;;*;....%%... .#+&&&&++&#&!+++,&6@+@$&&@@$$&.$##@@.%&&+**.$",
"...&.....*,,*.*'%_,_.+.-,,**,,,*(e,..;.&&&$+$$$++$&&&&&&++++&.@@+&!>$!@+&&&@+@&;&!@@++$.&+@%*..&",
"&&&.&+&.+.~,*$$.|,;&#..:*.'***;%...++&#+&....&&&&&&&&&&##+++;@@+$6%_@$@@.@@&+.;+!@@@$$+@@+..&+&&",
"&&&#&&##&..=,++=|@+.& +~*),*$+$&++;..&#&..&..&&...&&&&&+++#.&6&@@@>&w@@$.@&&.&+$@!$@@++$&%;$++++",
"&&&++&.&&#+**$*b.!..# .~,,,;...&&.+&#+#&..&&&&&&&&&&&&&&#&&;6&@$!_;@!+$&;& &@@@+##@@[&&&&$6$$&&@",
"+++.##&@+&#.,-(=.+.#    :*%%.&&&&+..&&.&+&&&&..&...&....&&.@@$@6'_6!$@!@@@@@++@@@@@$&;&@@$$++@$@",
"&++@+.  ,> -3=*,.+#. . .#$....&&&&*;&#&&#.&&#+&... &&.&+&&++!@!$>@!@@@@@@@@+@@@+&&.&$@@@@@@@+@@@",
"@.,:*=,=|eb(((---$..m& &&**&+$.%.&; &+&&##@&......#&&&&&&$@@+@!%_6@@@@@@@@@@@#&&&++@@!@@@@$$&&&&",
" )~(,,=-42(((((*-!#& &&..%.&..$$&.&. ...&... .&####&&&..+@+!@@!*;6+@@@@@@&&&&&&$@!!@@@@@@@@&@@$+"};
