/* XPM */
static char *_181a368d6bb47a9e5a97f330d639187Akj5NDWXIVtFMLX4[] = {
/* columns rows colors chars-per-pixel */
"32 32 152 2 ",
"   c #425275",
".  c #3F4E72",
"X  c #3A476C",
"o  c #323E60",
"O  c #29314F",
"+  c #2A314F",
"@  c #333E60",
"#  c #252B46",
"$  c #3A486C",
"%  c #3F4F72",
"&  c #282F4C",
"*  c #2E3857",
"=  c #313C5C",
"-  c #333E5F",
";  c #364266",
":  c #374469",
">  c #3E4C6F",
",  c #3D4B6E",
"<  c #3B496D",
"1  c #344061",
"2  c #29304C",
"3  c #272D4A",
"4  c #2F3859",
"5  c #303A5B",
"6  c #2B3351",
"7  c #272E4A",
"8  c #262C47",
"9  c #354164",
"0  c #3B496B",
"q  c #3C4A6D",
"w  c #39466A",
"e  c #323D5F",
"r  c #2B3451",
"t  c #2F3958",
"y  c #303B5B",
"u  c #323E5E",
"i  c #344163",
"p  c #364367",
"a  c #374468",
"s  c #354162",
"d  c #384566",
"f  c #374364",
"g  c #282D48",
"h  c #22263F",
"j  c #2D3655",
"k  c #2C3552",
"l  c #2C3554",
"z  c #323D5D",
"x  c #364264",
"c  c #374367",
"v  c #313B5D",
"b  c #262A46",
"n  c #22253E",
"m  c #2A3250",
"M  c #313D5D",
"N  c #344062",
"B  c #374363",
"V  c #262B45",
"C  c #20223A",
"Z  c #232842",
"A  c #313B5C",
"S  c #242843",
"D  c #21233B",
"F  c #262B46",
"G  c #333F61",
"H  c #354266",
"J  c #333F60",
"K  c #384568",
"L  c #333D5E",
"P  c #252943",
"I  c #2A324E",
"U  c #323E5F",
"Y  c #2E3856",
"T  c #2F3858",
"R  c #2C3453",
"E  c #232640",
"W  c #1F2139",
"Q  c #2D3553",
"!  c #2E3755",
"~  c #2F3959",
"^  c #313C5E",
"/  c #2D3656",
"(  c #232741",
")  c #282F4B",
"_  c #272D49",
"`  c #252A45",
"'  c #202139",
"]  c #1E2037",
"[  c #20233B",
"{  c #23263F",
"}  c #242842",
"|  c #28304C",
" . c #29314E",
".. c #21243C",
"X. c #262D48",
"o. c #28304D",
"O. c #252944",
"+. c #272C46",
"@. c #272E49",
"#. c #2C3451",
"$. c #2F395A",
"%. c #333D5F",
"&. c #394565",
"*. c #313C5D",
"=. c #354063",
"-. c #394667",
";. c #333F62",
":. c #2B3452",
">. c #3C4A6C",
",. c #303A5A",
"<. c #343F62",
"1. c #344063",
"2. c #323D5E",
"3. c #384569",
"4. c #3D4B6F",
"5. c #3E4D70",
"6. c #354161",
"7. c #2B3350",
"8. c #3B496E",
"9. c #3E4D71",
"0. c #282E4B",
"q. c #242943",
"w. c #2E3756",
"e. c #1E1F36",
"r. c #2A324F",
"t. c #242A44",
"y. c #272D48",
"u. c #282E49",
"i. c #2B334F",
"p. c #232740",
"a. c #262B47",
"s. c #394666",
"d. c #3A4868",
"f. c #30395A",
"g. c #3B4869",
"h. c #3F4E71",
"j. c #374467",
"k. c #394768",
"l. c #3D4B6D",
"z. c #354062",
"x. c #364365",
"c. c #21243D",
"v. c #333E5E",
"b. c #2C3654",
"n. c #2A314E",
"m. c #2D3654",
"M. c #2E3757",
"N. c #22243D",
"B. c #292F4B",
"V. c #242944",
"C. c #1F2138",
"Z. c #364267",
/* pixels */
"      . X o O + @ o O # # # # + @ $ % . X o O & * = = - ; : : : ",
"> > > , < 1 2 3 4 5 6 7 8 8 7 6 5 9 0 q w e & 8 r t y u i p a : ",
"s s s d , f g h 3 6 j k 7 7 k j 6 l z x c v b n 8 m t M u N p : ",
"= = = s q B V C Z 7 k k 7 & * t m m t - ; A S D F m t M u G 9 H ",
"= = = J K L P C Z 8 7 7 8 & * y t t y - ; A S n I t y u i 9 G U ",
"Y Y Y T 5 R E W h Z Z Z Z F I k k Q ! ~ ^ / ( n I Y Y ~ ^ ^ ~ Y ",
") ) ) _ ` E ' ] W C C C C [ n { { } _ |  ._ ..D F ) ) |  . .| ) ",
"# X.o.3 h ..( S S O.V +.+.V O.( ..n 8 |  .& F ` @.|  .m #.#.m + ",
"# o.$.4 3 _ / A A %.B &.&.B %./ _ 8 r ~ ^ e *.5 t ~ ^ =.-.-.=.@ ",
"# + @ ;.R :.e H H K >.> > , < 1 2 8 r ,.<.H H 1.2.u i 3.4.5.< $ ",
"# + @ 9 y ~ *.U U J 6.s s d , f g n 8 7.,.U U 2.*.M 2.N 3.8.9.% ",
"Z 0.v 9 G u M = = y t ~ *.x q B V .._ :.~ = = y t t y u i 3.4.. ",
"C q.w.G 9 i 2.= = t m :.e c w L P ( / e *.= = t m m t M 2.N 3.X ",
"e.n I ~ ^ v w.k k r._ o.$.o o / ( ( / ^ ~ ! Q I # F I Q ! ~ ^ o ",
"e.[ # |  .0.q.{ { ( t.X.o.O O _ ...._  .| y.} n [ [ n } y.|  .O ",
"+.u.i.#.m 3 h C C h 3 + + m #.i.u.u.i.#.m 3 h D n p.} a.I k k k ",
"&.s.d.-.=.4 3 Z Z 3 4 @ @ =.-.d.s.s.d.-.=.4 3 F I j f.@ d g.g.g.",
"> 5.h.5.8.1 2 q.` o.$.;.9 j.k.0 l.5.h.5.< z.r.| ~ G 9 3.4.h.5.> ",
"s x.w < 9.f g c.q.X.o.R y = ! Y v.x.w 8.9.-.#. .^ 9 G N 3.w x.s ",
"= 2.1.3.4.B V C Z X.o.6 j b.n.m t u 1.3.4.d I ) *.<.,.,.<.9 G - ",
"= *.2.N 3.L P C Z o.$.5 6  .m.t y *.2.N 3.- F q.w.,.7.7.,.G 9 ; ",
"Y Y Y T 5 R E W h _ / M.& 7 k ! Q k k j f.R E N.B.I # 8 r ~ ^ o ",
") ) ) _ ` E ' ] W ..( V.` 8 7 y.} { { p.} E ' C.N.n [ n 8 |  .O ",
"# 8 7 @.` } p.p.} O.V u.i.#.m 3 h D n n D ..( S S O.V u.i.#.m + ",
"# 7 k t 5 f.j j f.%.B s.d.-.=.4 3 F I I F _ / A A %.B s.d.-.=.@ ",
"Z 8 r ,.<.9 G G 9 3.4.h.5., < z.r.7 k b.n.:.e H H 3.4.h.5., < $ ",
"C n 8 7.,.G 9 9 G N 3.w x.d , -.#.8 7  .m.~ *.U U N 3.w x.d , % ",
"e..._ 6 j ,.<.<.,.,.<.9 G x q d I t._ m t y t t y - ; Z.<.x q . ",
"e.( / 5 6 7.,.,.7.7.,.G 9 c w - F ( r.t y t m m t - ; a p c w X ",
"e.E R / _ # I I # 8 r ~ ^ o o / ( n I Y Y r 8 # I w.v o o o o o ",
"e.' E ( ..[ n n [ n 8 |  .O O _ ..D # ) ) 8 n [ n q.0.O O O O O ",
"e.e.e.e.e.e.e.e.e.C Z # # # # Z C C Z # # Z C e.e.C Z # # # # # "
};
