/* XPM */
static char * test_xpm[] = {
"96 96 6 1",
" 	c #496D49",
".	c #242424",
"+	c #000000",
"@	c #6D926D",
"#	c #92B692",
"$	c #B6FFB6",
" . .+.+++++++++++.+....+++++++++++++++.+.+++++. @       @ +.+++..........@ @   ...+..@@  .@@@@ @",
". . .++.+.++++++. +....++++++++++++++.+.++++++++.@ @ @  . +++++...+++++.. @  @  . ++. @  .  @@@ ",
"+...+..+.++++++.  ++...+++++++++++++++++.++++++++. . . ..++.+++....++++....@   @ .++.. @   . @ @",
".++++. .+.+++++ @ +++..+++++++++++++++++++++++++++......++..+++...++++...... . .  +++..  ..+  @ ",
"++++. . .+++++.@  +++.+.++.+++++++++++++++++++++++.+.+.+.+@..+++.++++..... +..++..+++++.. ++.@ @",
"...+++....++++    .+++....+......+++++++.++++.+.++++++... .+++....++++++++ ..++++++....+++++. @ ",
"..++....++++++@   .++++ ..........+++.+.+++++..++++++.....++....++++++++.+.  ..+++ ..#..++++.. @",
".++....+. +++.   @. ++++ . .......++++++.+++...+++++++. .++....+. +++++++.  @ ..++    ..++++++. ",
"+.+..++...+++.  @   .++++.  . .....++.+.+.+....++++++....++..++...+++++.. .  @ .++  #  .+++++++ ",
".+..++. ..++.    @@  .++++   . .....++.+.++....++++++....+..++. ..+++... ..  @@..+.  #@ .+++++++",
"+..++. ...+.       @  .+++    . .. ..++.+.+. .+++++++...++.++. ...+.... # ..  @ .+ .     ..+++++",
".+.+. ..... .   # .    .++   . .... ..++.......++++++..+++.+. ..... ..   . .   @...  #  @  .++++",
"..+.  .... . . . #++.   .+    . .. . . +++ ...++++++.+.++++.  .... .. # .+@..    . .  #  @  ++++",
"++.  ...+. . . +++. . . .  . . . #  @ ....+.....+.++.+.+.+. . . . . . . . +.... @ @ @ @ @.  @.++",
"++   ..+.+. ..++.. . . . .. .   #  @   . ..++....++.+.++++###@@  . . . . ... ...  @@ @ @ @ @ +++",
"+.  ..+. . ..++.+.. . .+..+.      @     . ..+++....+++++++##@#@#@@  . . ...+  ... @@@ @ @   .+++",
". ... . . ..++.+.+ . . ...++.    @     . . . .+++.+.+.++++ @#@#@#@#@@  ...++.  ...@@@@ @ @ .++++",
".... .    .++.+.+.. ...+. +++.  @ @     . . ....++++.+.+++. @###@#@@@@  ..+...  ..  @@@   .+++++",
"...      @++++++.++.+.+++.+++.   @ @   . . . . ..++.++++++.. @#@#@#@#@@ ....+..    . @ @ @.+++++",
" .   @ @  +++.+.++...+.+++++++@   @     . . . ....++++++++... @#@#@@@@@@ ..+.+..  .+  @   +.++++",
".        @++++++.++.+.++++++++         . . . . . .++++++++..+.@@#@@#@@@@@ +++.+...++.@ @ @++++++",
" #  @  @  ++++++++++.+.+++++++.@  @  #  . . . . ..++++++++...+ @@#@@@@@ @@ ..+...+++. @ @ ++++++",
"# #       +++++++++++..++++++++ @  @  #  . . . . .+.++++++..+.  @@@@ @@@ @  +. .++++.. @ @++++++",
"    .   # +++++++++++...+++++++.  .     . . . . . .+++++++..... @ @@@ @ @ @ ..  ++++++. @ ++++++",
" @#  .   #+++++++++++....+++++++. +. @#  . . . . ..+++++++.+....   @ @ @ @ @ .   ++++++  @++++++",
"@  #. . # +++++++++++....++++++++.++.  #  . . . .. .+++++++...+...      @ @ ..@  .++++++  ++++++",
" @#  .   #++++++++++++. .++++++++.++..     . . . .  .+++++.+.+.+.+... . .  .+  @  .+++++.@++++++",
"   #  .   +++++++++++.....++++++.+++..#.. . . . .  @ ++++++.+.+++++.+......+. @ @  .++++. ++++++",
"  # #     .+++++++++++... +++++++++++....+.... . .  @.++++.+.++.+.+++++++.++.....   +++++..+++++",
"   # # @  +++++++++...++. +....+++++..#...+.+..# # @@@ .+.+.++.+.+.+.++++++.... @   .++++..+.++.",
"@ @ @ @ # +.+++++++++++. . ..#..+++++..+.+.+++. # @ .@ ..+.++.+.+.+.+..+++.. ...     .....++++.+",
"   @ @## #.+++++++++++. .     ..++++........+++. #    @ ..++++...+.+..+.++.+  ...    .+# #+.+.+.",
". @ @ @ @ .++++++++++. . .  #  .+++++....+.+.++.. . .   .+.++#+.+....+.+++++.  ...   ++ # ...+..",
"+. @ @. .  .++++++++. .   .  #@ .++++.......++++.@   .   .++#.#+....+.+.+++...  ...  ++# #  ....",
"+...@  .    .++++++. .   . .     ..++...+..+.+++... . . .+.++..#.#.+.+.+++..+..   ...++.#@ @ ...",
".++.. . .  @ ++++++ .     .  #  @ +.++.+.+..+++++. . . .+.@ ++++.+.#+.++++.+.+..    ++...#@@  .+",
"+++.   . .  @.++++..       .  #  @.+.+++++.+.++++.. . . ++@@@ ..++++++++ .+++.+.....+....@#@@ +.",
"+.. . . . . . . . .. .    @ @ @ @. @..+...++++.+.+ . . +++ @@@ .      .+  .++++....+++....  @.++",
".+###@@  . . . . .... .   @@ @ @ @@ #..+.++++.+.+.. ..++..+ #@ .@@ @ @ .+   .+.+...++++ .. @ +++",
"..##@#@#@@  . . .... .    @@@ @ @  @@ +..+++++.+.+ ..++.+.+.@#@ @@@ @ @ .+.  . . .. ++++ .  .+++",
".. @#@#@#@#@@  ...... .   @@@@ @ @  @@.+.++++++.+...++.+.+++ @@ @@ @ @ @ .+. @      .++++. .++++",
"... @###@#@@@@  ...... .    @@@      @ .++++++++.+.++.+.+.++#@#@ @@ @ @   ...+. @@@  .++++.+++++",
".... @#@#@#@#@@ .........  . @ @ @   @ +.++++++++.++++++.++. @@@@@@  @ @ @ ...+..  @  .+++.+++++",
". ... @#@#@@@@@@ ..........+  @    @ @ .++++++++..+++.+.+++.# @@@@@@  @    @  .+++.    .+++.++++",
" ...+.@@#@@#@@@@@ +......+++.@ @ @  @@ +.+++++....++++++.++. ..  @@@ . @ @     ..+++.   .+++++++",
". ...+ @@#@@@@@ @@ ..+...+++. @ @   @@ +.+.++@ .... +++.+++..+. @ @@@..      @  ..+++ ..++.+++++",
" ...+.  @@@@ @@@ @  +. .++++.. @ @ @ @ .++.+++@@ ....++++++..++. @ @ @.  @ @   @ .++ .++. ++++++",
"+...... @ @@@ @ @ @ ..  ++++++. @    @ +.++.+.+ @@@ ..+.+++.+++...  # +.@   @   ..+..+++  ++++++",
"++.+....   @ @ @ @ @ .   ++++++  @   @ .++.+. ..  @@@ .++++.+++..........@ @   ... ..++. @++++++",
"+++...+...      @ @ ..@  .++++++    @@.+.++.+.@    @@@@ .++++++...+++++.. @  @  . ..++.   ++++++",
"++.+.+.+.+... . .  .+  @  .+++++.@ @@ +..+.++..@       @@.+.+++....++++....@   @ .+++.   .++++++",
"+++.+.+++++.+......+. @ @  .++++. @ #..+.+++++. #        #..+++...++++...... . .  ..+. ...++++++",
"++.+.++.+.+++++++.++.....   +++++. @..+...++++.  #     @  @..+++.++++..... +..++...++ ....++++++",
"..++.+.+++++.+.++++.... @  ..+++++.+.+.++++++ . # #     @  @..+...++++... .+++....+++.....++++++",
"..+++..++++++..+++.. ...  .  ..++++.+.+.+++++.      .    @@ #..+.++++.....++....+++.......++++++",
".++++...+++++...++.+  ...   @ ..++...+.+.+++++    #  .     @@ +..+++++. .++....+. ...+.+.+++++++",
"..+++....++++....+++.  ....  @ .+++.+.+.+.+++.#    #  .     @@.+.++++....++..++.....+...+.++++++",
".++++....++++....++...  ...  @@..+...+.+.+++++    #  .       @ .+++++....+..++. .......+.+++++++",
"..++++. .+++++. .+..+..   ..  @ .++.+.+.+.+++.# #  #  .  @   @ +.++++...++.++. ...+...+.+.++++++",
"..+++.....+++......+.+..   .   @..++.+.+.+++..    $ #      @ @ .+++++..+++.+. .........+.+++++++",
"+.++++... ++++... +++.+...@..    .+++.+.+++.. . @  $ #      @@ +.+++.+.++++.  ........+....+++++",
"..+.+..# #    .+  .++++...++. . .+++++.+.+.. .    @ #        @@ +.+.+.++++.  ...+.+.+.. .  .++.+",
"++.+++. #  @ @ .+   .+.+..+++. .+.+++.+.+.... .    @@    @ @  @@.+...+.+++   ..+.+.+.. .  @ .+ +",
". ..+++. #@ @ @ .+.  . . ...+..+.+++++.+.+.. .     @@#@   @   #@..+.+.+++.  ..+. .      @  @ . +",
"...+.++..  @ @ @ .+. @    . .++.+.+++++.+.... .     @@@##  @ # @ .. ...+. ... . .    @ @ @@@@ #.",
"....++++.@@ @ @   ...+. @@ .+.++++++++++.+.... .    @@@@## ## #  . . . ..... .      @ @@@@ @@@ .",
"...+.+++..@  @ @ @ ...+.. .++++++++++++++........      @@### #.@ .. . .+...      @ @ @@@@@@ @@#.",
"....+++++.@@  @    @  .++++++++++.++++++..........       # ##.. .. . . . .   @ @  @ @ @ @@  @@ .",
"...+.++++.@@ . @ @     ..+++++++++++++....+......+.       # ....... . . .        @ @ @ @ @@  @ .",
"..++++. . .    ..@  @ ....+.....+.++.... . .++...+.....   @# ..++. . . . #  @  @      @ @ #@@ +.",
" .+++++. ...@   .  @   . ..++....++.... . . .+++++. ..+.. @@##.+++. .   # #       @ @  @ @@@  .+",
"@@+++++++.+. @  ..@     . ..+++...+. ... . . .++++...+.+.. ##@.++++.        .   #     @    @ ...",
"  +++++++++..@@  .     . . . .+++.. . . . . . .++++.+.+...+ # .+++++.    @#  .   #  @.  @   ....",
"  ..++++++++. @  .@     . . ....+++# .   .   . .++.+.+....+.@ .++++++.  @  #. . # #   @   ...+..",
"   ...++++++.. @   @   . . . . ..++.# # # .   . .++.+.+..++. .+.+++++.   @#  .   #      @ +.+.+.",
"# . ...++++++..  .@     . . . ....++.# # #     . +++++..+++..+.+++++++@    #  .   #      @++++.+",
" # . . .+++++++..      . . . . . ..++.# #       ..+++. .++. . .+++++++    # #           @@.+.++.",
"# # . . . +++++..+@  #  . . . . ..+.+..# # .   . .++++.. . . ...++++++.@   # # @    @    @++....",
"   #   . .+++....+ @  #  . . . . ..+++. # #     . .++++ . . . .+.++++++ @ @ @ @ # #       +.... ",
"        .+. . .....     . . . . . ..+++. #  .    ..++++.     . .+++++++.   @ @## #    @  @+. ...",
"  @    .++ . . ...+. @#  . . . . ..+.++.. #  .  # .+++++.#    ...+++++++. @ @ @ @ # #  @  . . . ",
"   @  .+++. . . . ++.  #  . . . ....++++.@       . .+++++.#  . .+++++++++. @ @. .  #    @ +# .  ",
"# @   .++++. . . .++..     . . . ..+.+++..@   .   . ++++++.#  ...++++++++...@  .       @ @+.# # ",
"     @++++++.#. . ++..#.. . . . . ..+++++.    . @  ..+++.++.   .+.++++++.++.. . . . @    #++.# #",
"@     +++++++.....+++....+.... . ..+.++++..@   .    .++++.+. # ..++++++++++.   . . . @   @.++.# ",
"    @.++++++.+.+.+++..#....+.+...+++.+.+.+.    ..@ . .++++ .. # .+++++++++. .   .  .   . .+.+..#",
"   @ ++++++.+.+++++++..+.+....+.+.+.+.++++..@   .   . .+++. ..   .+++++++.......    .......+++. ",
"    .+++++.+++++++++.......+.+.+.+.++++++++. @  .. . . .+.+.... # .++++++++++.+.+..+.+.+++..+++.",
"   .+++++++.+.+++++++....+..+.+.+.+.+.+++++..@@  .. . . .++++... . .+.++++++++++.++.++++++.+.++.",
"  .+++++++++.+.++++++......+.+.+.+++.+.+++++. @  ... . ..++++++.. . .++.+.+.+++.+..+.+++.+..++++",
". .++++++++.++++++.++...+.+...+.+.+.++++++++.. @  .+. . .++++++++...+..+.+.+.++++++++++.+..+.+++",
"..+.+++++++++++++++.++.+.+.+.+.+.++++++++++++..  . .+...++++++++.++++. .+...+.++++++++.+....++++",
".+++++++++++++++++.+.++++++++++++++++++++++++++.. ...+.+.+++++++++++. . .+.....++++++......+.+++",
". .+.+.+++++++++++..+.+.+.++++++++++++++++++++++...++.+.++++++.++++. # . .. . # .+++++++++++.+.+",
"  +.++++++++++++++.....+.+.+.+.+.+.+.+.++++++.++++++.+.+..........++..# #  # #..++..+++.+.+.+.++",
"  .+.+.+.++++++++++ ......+.+.+.+.+.+.++++....+. . +....... . . . .+++........+++.....++++.+++++"};
